<?xml version="1.0" encoding="UTF-8"?>
<svg id="Layer_1" xmlns="http://www.w3.org/2000/svg" viewBox="0 0 900 900">
  <defs>
    <style>
      .cls-1 {
        fill: #ffd89a;
      }

      .cls-1, .cls-2, .cls-3, .cls-4, .cls-5, .cls-6, .cls-7, .cls-8, .cls-9, .cls-10, .cls-11, .cls-12 {
        fill-rule: evenodd;
      }

      .cls-2, .cls-13, .cls-12 {
        fill: #fff;
      }

      .cls-14 {
        fill: none;
        stroke-dasharray: .51 15.24 0 0;
        stroke-width: 25.39px;
      }

      .cls-14, .cls-3 {
        stroke: #ad0000;
      }

      .cls-14, .cls-3, .cls-11, .cls-12 {
        stroke-linecap: round;
        stroke-linejoin: round;
      }

      .cls-3 {
        fill: #ad0000;
      }

      .cls-3, .cls-11, .cls-12 {
        stroke-width: .43px;
      }

      .cls-4 {
        fill: #345b35;
      }

      .cls-5 {
        fill: #1f801e;
      }

      .cls-6 {
        fill: #1c781b;
      }

      .cls-7 {
        fill: #ffcb77;
      }

      .cls-8 {
        fill: #ffdea8;
      }

      .cls-9 {
        fill: #228e21;
      }

      .cls-10 {
        fill: #1d761c;
      }

      .cls-11 {
        stroke: #000;
      }

      .cls-12 {
        stroke: #fff;
      }
    </style>
  </defs>
  <g id="Vleugel">
    <path class="cls-5" d="M725.35,473.89s-60.64,17.89-72.63,66.63c-12,48.75-80.52,24.1-80.52,24.1l-62.4-30.83s17.15-18.78,45.6-36.07c16.76-10.19,35.57-15.1,35.57-15.1,0,0,11.62-31.49,47.16-34.84,49.95-4.7,87.22,26.1,87.22,26.1h0Z"/>
    <path class="cls-10" d="M712.73,467.8s-17.66-9.21-39.8-13.84c-4.52-.94-9.22-1.69-13.99-2.09-4.7-.39-9.48-.44-14.19-.08-6.36.49-12.62,1.74-18.5,3.95-8.57,3.23-16.3,8.55-22.38,16.67,6.42-7.65,14.33-12.4,22.9-15.18,5.81-1.88,11.93-2.82,18.12-3.14,4.61-.24,9.25-.11,13.85.23,4.69.35,9.33.94,13.8,1.69,22.16,3.75,40.19,11.77,40.19,11.77Z"/>
    <path class="cls-10" d="M601.88,479.34s10.11-4.09,24.51-5.66c3.64-.4,7.56-.64,11.67-.63,1.64,0,3.3.04,4.99.12,2.17.09,4.39.26,6.63.5,3.23.35,6.52.88,9.84,1.65,7.65,1.77,15.47,4.78,23.04,9.77-7.27-5.62-14.93-9.34-22.56-11.6-3.37-1-6.72-1.71-10.03-2.18-2.3-.33-4.58-.53-6.82-.62-1.74-.07-3.45-.07-5.13-.02-4.19.13-8.19.58-11.88,1.21-14.4,2.45-24.26,7.46-24.26,7.46h0Z"/>
    <path class="cls-10" d="M596.64,490.18s10.2-.2,23.82,2.32c2.49.46,5.09,1.01,7.77,1.62,2.5.57,5.08,1.19,7.7,1.9,4.13,1.13,8.35,2.46,12.56,4.17,4.04,1.64,8.05,3.56,11.91,5.92-5.54-4.18-11.47-7.48-17.48-9.98-2.54-1.06-5.09-1.97-7.62-2.75-1.75-.54-3.5-1-5.22-1.4-1.34-.31-2.66-.57-3.97-.8-3.28-.57-6.42-.94-9.36-1.18-11.79-.95-20.11.16-20.11.16Z"/>
    <path class="cls-5" d="M174.65,473.89s60.64,17.89,72.63,66.63c12,48.75,80.52,24.1,80.52,24.1l62.4-30.83s-17.15-18.78-45.6-36.07c-16.76-10.19-35.57-15.1-35.57-15.1,0,0-11.62-31.49-47.16-34.84-49.95-4.7-87.22,26.1-87.22,26.1h0Z"/>
    <path class="cls-10" d="M187.27,469.32s18.03-8.02,40.19-11.77c4.47-.76,9.11-1.34,13.8-1.69,4.59-.35,9.24-.47,13.85-.23,6.19.32,12.31,1.26,18.12,3.14,8.58,2.78,16.48,7.53,22.9,15.18-6.08-8.12-13.81-13.44-22.38-16.67-5.88-2.22-12.14-3.47-18.5-3.95-4.71-.36-9.49-.31-14.19.08-4.77.4-9.48,1.15-13.99,2.09-22.14,4.62-39.8,13.84-39.8,13.84h0Z"/>
    <path class="cls-10" d="M298.12,480.86s-9.85-5.01-24.26-7.46c-3.69-.63-7.69-1.08-11.88-1.21-1.68-.05-3.4-.05-5.13.02-2.24.09-4.52.29-6.82.62-3.31.47-6.67,1.18-10.03,2.18-7.63,2.27-15.29,5.99-22.56,11.6,7.57-4.99,15.39-8,23.04-9.77,3.33-.77,6.62-1.3,9.84-1.65,2.25-.25,4.46-.41,6.63-.5,1.69-.07,3.36-.11,4.99-.12,4.11,0,8.02.23,11.67.63,14.4,1.57,24.51,5.66,24.51,5.66h0Z"/>
    <path class="cls-10" d="M303.36,491.71s-8.32-1.11-20.11-.16c-2.94.24-6.08.61-9.36,1.18-1.31.23-2.63.49-3.97.8-1.72.4-3.47.86-5.22,1.4-2.53.77-5.08,1.69-7.62,2.75-6,2.5-11.93,5.8-17.48,9.98,3.87-2.36,7.88-4.28,11.91-5.92,4.2-1.71,8.43-3.05,12.55-4.17,2.62-.71,5.19-1.33,7.7-1.9,2.69-.61,5.29-1.16,7.77-1.62,13.62-2.52,23.82-2.32,23.82-2.32h0Z"/>
  </g>
  <g id="Touw-boven">
    <path class="cls-14" d="M450.91,125.53c184.7,1.84,245.09,137.95,241.22,235.64-3.27,82.59-62.95,158.51-62.95,158.51"/>
    <path class="cls-14" d="M450.97,125.39c-184.7,1.84-245.09,137.95-241.22,235.64,3.27,82.59,62.96,158.51,62.96,158.51"/>
    <g>
      <path class="cls-1" d="M664.14,489.14s-1.33,1.39-6.7,1.72c-1.44.09-3.17.09-5.25,0-1.55-.07-3.29-.17-5.25-.38-1.49-.11-2.94-.09-4.33.09-2.26.3-4.35.95-6.2,1.72-1.41.59-2.67,1.27-3.78,1.94-3.17,1.93-5.02,3.83-5.02,3.83,0,0,3.69-2.95,9.19-4.73,1.82-.59,3.83-1.03,5.98-1.23,1.3-.12,2.64-.17,4.04-.06,2,.1,3.78.14,5.36.09,2.13-.06,3.89-.25,5.35-.49,5.43-.9,6.61-2.52,6.61-2.52Z"/>
      <path class="cls-1" d="M656.1,503.89s-1.33,1.39-6.7,1.72c-1.44.09-3.17.09-5.25,0-1.55-.07-3.29-.17-5.25-.38-1.49-.11-2.94-.09-4.33.09-2.26.3-4.35.95-6.2,1.72-1.41.59-2.67,1.27-3.78,1.94-3.17,1.93-5.02,3.83-5.02,3.83,0,0,3.69-2.95,9.19-4.73,1.82-.59,3.83-1.03,5.98-1.23,1.3-.12,2.64-.17,4.04-.06,2,.1,3.78.14,5.36.09,2.13-.06,3.89-.25,5.35-.49,5.43-.9,6.61-2.52,6.61-2.52Z"/>
      <path class="cls-1" d="M673.37,472.82s-1.27,1.44-6.63,1.98c-1.44.15-3.17.22-5.25.21-1.55,0-3.3-.04-5.26-.17-1.5-.05-2.94.03-4.32.26-2.25.38-4.31,1.11-6.13,1.97-1.38.65-2.62,1.37-3.7,2.09-3.09,2.05-4.87,4.03-4.87,4.03,0,0,3.57-3.09,9-5.09,1.79-.66,3.78-1.18,5.93-1.47,1.29-.17,2.64-.28,4.03-.22,2.01.02,3.78,0,5.36-.12,2.13-.15,3.88-.41,5.33-.7,5.39-1.11,6.51-2.78,6.51-2.78h0Z"/>
      <path class="cls-1" d="M680.61,456.83s-1.2,1.5-6.52,2.32c-1.43.22-3.15.38-5.23.48-1.55.07-3.29.12-5.26.1-1.5.02-2.94.18-4.3.48-2.22.5-4.24,1.33-6.02,2.27-1.35.72-2.55,1.5-3.59,2.28-2.98,2.21-4.66,4.27-4.66,4.27,0,0,3.41-3.27,8.73-5.54,1.76-.75,3.72-1.37,5.85-1.77,1.28-.24,2.62-.41,4.01-.42,2-.08,3.78-.2,5.35-.39,2.12-.26,3.85-.6,5.29-.97,5.33-1.38,6.36-3.1,6.36-3.1h0Z"/>
      <path class="cls-1" d="M687.91,440.16s-1.13,1.55-6.42,2.59c-1.42.28-3.13.51-5.21.7-1.54.14-3.28.26-5.25.32-1.49.09-2.93.3-4.28.66-2.2.59-4.18,1.51-5.92,2.53-1.32.77-2.48,1.61-3.49,2.43-2.89,2.33-4.47,4.46-4.47,4.46,0,0,3.27-3.41,8.49-5.91,1.72-.82,3.66-1.53,5.77-2.01,1.27-.29,2.6-.52,3.99-.59,2-.16,3.77-.36,5.33-.61,2.1-.34,3.82-.77,5.24-1.2,5.26-1.61,6.22-3.37,6.22-3.37h0Z"/>
      <path class="cls-1" d="M693.63,422.72s-1.04,1.62-6.24,2.98c-1.4.37-3.09.7-5.15,1.02-1.53.23-3.26.47-5.22.64-1.49.18-2.91.48-4.23.93-2.16.73-4.08,1.77-5.75,2.89-1.27.85-2.38,1.76-3.34,2.64-2.74,2.51-4.19,4.73-4.19,4.73,0,0,3.05-3.61,8.11-6.42,1.67-.93,3.56-1.75,5.63-2.36,1.25-.37,2.56-.68,3.95-.84,1.99-.29,3.74-.59,5.28-.94,2.08-.47,3.77-1,5.16-1.52,5.16-1.93,6-3.75,6-3.75h0Z"/>
      <path class="cls-1" d="M698.07,406.13s-.94,1.68-6.06,3.34c-1.38.45-3.05.88-5.09,1.31-1.52.32-3.23.65-5.18.94-1.47.26-2.87.65-4.17,1.17-2.11.85-3.97,2-5.57,3.21-1.22.92-2.27,1.89-3.18,2.83-2.59,2.66-3.91,4.96-3.91,4.96,0,0,2.84-3.78,7.72-6.87,1.61-1.02,3.45-1.95,5.49-2.68,1.23-.44,2.52-.83,3.89-1.06,1.97-.4,3.7-.8,5.22-1.24,2.05-.59,3.71-1.21,5.06-1.81,5.04-2.22,5.78-4.09,5.78-4.09h0Z"/>
      <path class="cls-1" d="M701.69,387.53s-.8,1.75-5.77,3.82c-1.33.56-2.97,1.13-4.96,1.73-1.49.45-3.17.92-5.08,1.37-1.45.39-2.81.88-4.06,1.51-2.04,1.02-3.8,2.32-5.29,3.66-1.14,1.02-2.11,2.07-2.94,3.08-2.36,2.86-3.49,5.27-3.49,5.27,0,0,2.52-4,7.13-7.49,1.52-1.15,3.28-2.23,5.25-3.13,1.19-.54,2.44-1.03,3.79-1.38,1.93-.56,3.62-1.11,5.1-1.67,1.99-.76,3.59-1.52,4.89-2.22,4.84-2.63,5.42-4.55,5.42-4.55Z"/>
      <path class="cls-1" d="M704.26,369.06s-.66,1.81-5.45,4.26c-1.29.66-2.87,1.36-4.81,2.11-1.45.56-3.08,1.16-4.96,1.76-1.41.5-2.73,1.1-3.93,1.82-1.95,1.18-3.6,2.61-4.99,4.06-1.05,1.11-1.94,2.23-2.69,3.3-2.13,3.04-3.06,5.52-3.06,5.52,0,0,2.2-4.18,6.53-8.02,1.43-1.27,3.09-2.48,4.99-3.53,1.14-.63,2.35-1.22,3.67-1.67,1.88-.71,3.52-1.39,4.95-2.06,1.93-.91,3.46-1.79,4.7-2.6,4.62-3,5.05-4.96,5.05-4.96h0Z"/>
      <path class="cls-1" d="M705.4,350.39s-.54,1.85-5.15,4.62c-1.24.74-2.77,1.54-4.66,2.43-1.41.66-3,1.37-4.83,2.09-1.38.59-2.65,1.28-3.8,2.08-1.87,1.31-3.42,2.84-4.71,4.39-.98,1.17-1.79,2.36-2.46,3.47-1.92,3.18-2.69,5.72-2.69,5.72,0,0,1.91-4.32,5.97-8.44,1.34-1.36,2.92-2.68,4.74-3.85,1.1-.7,2.27-1.37,3.55-1.91,1.82-.83,3.42-1.62,4.8-2.39,1.86-1.04,3.34-2.02,4.52-2.91,4.41-3.3,4.71-5.28,4.71-5.28h0Z"/>
      <path class="cls-1" d="M703.95,333.27s-.35,1.89-4.68,5.1c-1.16.86-2.61,1.81-4.4,2.87-1.33.79-2.85,1.65-4.6,2.55-1.31.72-2.51,1.53-3.58,2.44-1.73,1.48-3.12,3.16-4.25,4.83-.86,1.26-1.55,2.52-2.11,3.69-1.6,3.35-2.11,5.95-2.11,5.95,0,0,1.48-4.49,5.12-8.98,1.2-1.48,2.64-2.96,4.34-4.3,1.02-.81,2.12-1.59,3.35-2.25,1.73-1.01,3.25-1.95,4.54-2.85,1.75-1.22,3.12-2.34,4.21-3.34,4.06-3.72,4.17-5.72,4.17-5.72h0Z"/>
      <path class="cls-1" d="M702.09,314.23s-.21,1.91-4.28,5.44c-1.09.95-2.46,2-4.17,3.19-1.27.89-2.72,1.86-4.4,2.89-1.25.82-2.39,1.72-3.38,2.7-1.62,1.61-2.88,3.39-3.88,5.13-.76,1.33-1.35,2.63-1.83,3.84-1.35,3.46-1.66,6.09-1.66,6.09,0,0,1.14-4.59,4.43-9.34,1.09-1.57,2.41-3.15,4-4.61.96-.88,2-1.74,3.17-2.5,1.65-1.14,3.09-2.18,4.32-3.18,1.65-1.34,2.94-2.56,3.95-3.64,3.77-4.01,3.73-6.02,3.73-6.02h0Z"/>
      <path class="cls-1" d="M698.68,295.29s-.09,1.92-3.92,5.7c-1.03,1.02-2.33,2.15-3.96,3.45-1.21.97-2.59,2.03-4.2,3.16-1.2.9-2.28,1.87-3.2,2.91-1.51,1.71-2.65,3.57-3.54,5.37-.67,1.37-1.18,2.71-1.57,3.95-1.12,3.54-1.27,6.19-1.27,6.19,0,0,.84-4.65,3.82-9.61.98-1.64,2.21-3.29,3.7-4.86.9-.94,1.88-1.87,3-2.7,1.58-1.24,2.94-2.38,4.1-3.45,1.56-1.45,2.77-2.75,3.71-3.89,3.5-4.24,3.33-6.24,3.33-6.24h0Z"/>
      <path class="cls-1" d="M693.56,278.54s.08,1.92-3.39,6.03c-.93,1.1-2.13,2.35-3.63,3.8-1.12,1.07-2.4,2.26-3.9,3.53-1.11,1-2.1,2.06-2.93,3.19-1.35,1.84-2.32,3.79-3.04,5.67-.55,1.43-.93,2.81-1.21,4.08-.8,3.62-.71,6.28-.71,6.28,0,0,.42-4.71,2.94-9.91.83-1.72,1.9-3.48,3.25-5.17.81-1.02,1.71-2.03,2.75-2.95,1.46-1.38,2.72-2.63,3.78-3.81,1.43-1.58,2.51-2.99,3.35-4.21,3.11-4.54,2.76-6.52,2.76-6.52Z"/>
      <path class="cls-1" d="M687.73,261.74s.19,1.91-3.07,6.2c-.87,1.15-2,2.46-3.42,3.98-1.06,1.13-2.28,2.38-3.71,3.73-1.06,1.06-1.99,2.17-2.75,3.34-1.25,1.91-2.12,3.91-2.74,5.82-.47,1.45-.78,2.85-.99,4.14-.6,3.66-.37,6.31-.37,6.31,0,0,.17-4.72,2.41-10.06.74-1.76,1.71-3.57,2.97-5.34.76-1.06,1.6-2.12,2.59-3.1,1.38-1.45,2.57-2.77,3.57-4,1.34-1.66,2.35-3.12,3.12-4.38,2.86-4.7,2.41-6.65,2.41-6.65h0Z"/>
      <path class="cls-1" d="M680.83,244.42s.3,1.9-2.7,6.37c-.8,1.2-1.85,2.58-3.18,4.18-.99,1.19-2.13,2.51-3.48,3.94-.99,1.12-1.85,2.29-2.55,3.5-1.14,1.98-1.88,4.03-2.39,5.97-.38,1.48-.61,2.89-.75,4.19-.39,3.69,0,6.32,0,6.32,0,0-.11-4.72,1.81-10.18.63-1.8,1.5-3.67,2.65-5.5.69-1.1,1.47-2.21,2.4-3.24,1.3-1.53,2.41-2.92,3.33-4.21,1.24-1.73,2.16-3.25,2.85-4.55,2.58-4.86,2.01-6.78,2.01-6.78h0Z"/>
      <path class="cls-1" d="M671.68,227.81s.51,1.86-1.99,6.63c-.67,1.28-1.56,2.76-2.71,4.5-.86,1.29-1.85,2.73-3.03,4.3-.87,1.22-1.59,2.48-2.15,3.76-.91,2.09-1.43,4.21-1.72,6.2-.22,1.51-.29,2.94-.29,4.24.02,3.71.69,6.28.69,6.28,0,0-.62-4.68.69-10.32.43-1.86,1.09-3.81,2.03-5.76.57-1.17,1.22-2.35,2.03-3.49,1.12-1.66,2.07-3.17,2.85-4.54,1.04-1.86,1.79-3.46,2.34-4.84,2.04-5.11,1.26-6.96,1.26-6.96h0Z"/>
      <path class="cls-1" d="M661.94,213.11s.63,1.82-1.54,6.75c-.58,1.32-1.37,2.86-2.4,4.67-.77,1.35-1.66,2.85-2.74,4.49-.78,1.28-1.43,2.58-1.9,3.89-.77,2.14-1.15,4.3-1.31,6.3-.12,1.52-.1,2.96,0,4.25.26,3.7,1.11,6.22,1.11,6.22,0,0-.93-4.63,0-10.34.31-1.88.83-3.88,1.64-5.88.49-1.21,1.06-2.43,1.8-3.61,1.01-1.73,1.86-3.3,2.54-4.72.92-1.92,1.56-3.58,2.01-4.98,1.69-5.24.79-7.03.79-7.03h0Z"/>
      <path class="cls-1" d="M651.33,197.69s.75,1.77-1.08,6.83c-.49,1.36-1.17,2.95-2.08,4.82-.68,1.4-1.46,2.95-2.43,4.67-.69,1.33-1.25,2.67-1.63,4.01-.63,2.19-.86,4.36-.88,6.37-.02,1.53.1,2.96.28,4.24.51,3.68,1.52,6.13,1.52,6.13,0,0-1.24-4.56-.69-10.32.18-1.9.57-3.92,1.24-5.98.4-1.24.89-2.5,1.55-3.73.89-1.8,1.63-3.41,2.22-4.88.79-1.98,1.31-3.67,1.67-5.11,1.33-5.34.31-7.07.31-7.07Z"/>
      <path class="cls-1" d="M638.81,184.95s.91,1.69-.43,6.91c-.36,1.4-.89,3.05-1.61,5-.54,1.45-1.18,3.08-1.97,4.88-.56,1.39-.99,2.77-1.24,4.15-.41,2.24-.44,4.43-.27,6.43.13,1.52.38,2.93.68,4.2.86,3.61,2.1,5.96,2.1,5.96,0,0-1.67-4.42-1.67-10.2,0-1.91.2-3.96.67-6.07.29-1.27.65-2.57,1.19-3.86.71-1.88,1.3-3.55,1.74-5.07.6-2.05.96-3.78,1.18-5.24.82-5.44-.36-7.07-.36-7.07Z"/>
      <path class="cls-1" d="M625.04,172.32s1.09,1.59.3,6.91c-.21,1.43-.57,3.12-1.08,5.14-.39,1.5-.85,3.18-1.45,5.06-.42,1.44-.69,2.86-.8,4.25-.18,2.27.03,4.45.41,6.42.29,1.5.69,2.88,1.12,4.1,1.23,3.5,2.71,5.71,2.71,5.71,0,0-2.13-4.22-2.73-9.97-.2-1.9-.22-3.96.03-6.11.15-1.29.38-2.62.78-3.96.51-1.94.92-3.67,1.2-5.23.38-2.1.56-3.86.62-5.34.25-5.5-1.1-6.99-1.1-6.99h0Z"/>
      <path class="cls-1" d="M610.98,161.25s1.2,1.51.78,6.88c-.11,1.44-.34,3.15-.72,5.2-.28,1.53-.62,3.24-1.09,5.15-.31,1.46-.49,2.9-.5,4.3-.02,2.28.34,4.43.86,6.38.39,1.48.89,2.82,1.41,4.01,1.48,3.4,3.11,5.5,3.11,5.5,0,0-2.42-4.06-3.42-9.76-.33-1.88-.5-3.93-.4-6.09.06-1.3.19-2.64.5-4,.38-1.97.66-3.73.83-5.3.23-2.12.28-3.89.25-5.37-.14-5.5-1.59-6.9-1.59-6.9Z"/>
      <path class="cls-1" d="M596.6,150.44s1.29,1.42,1.24,6.81c-.01,1.45-.13,3.17-.37,5.24-.18,1.54-.41,3.27-.75,5.21-.22,1.48-.3,2.93-.22,4.32.13,2.28.63,4.4,1.28,6.31.49,1.45,1.07,2.76,1.67,3.91,1.7,3.3,3.47,5.28,3.47,5.28,0,0-2.68-3.89-4.06-9.51-.46-1.85-.76-3.89-.8-6.05-.03-1.3.02-2.65.23-4.03.24-1.99.41-3.76.48-5.34.09-2.13.02-3.9-.11-5.37-.51-5.48-2.04-6.77-2.04-6.77h0Z"/>
      <path class="cls-1" d="M581.2,143.31s1.42,1.3,1.87,6.66c.12,1.44.16,3.17.12,5.25-.03,1.55-.1,3.29-.26,5.26-.08,1.49-.02,2.94.19,4.33.34,2.25,1.04,4.32,1.86,6.16.62,1.39,1.33,2.65,2.03,3.74,2,3.13,3.94,4.94,3.94,4.94,0,0-3.03-3.62-4.93-9.09-.63-1.8-1.12-3.8-1.36-5.95-.15-1.29-.23-2.64-.15-4.03.06-2.01.06-3.78-.02-5.36-.11-2.13-.34-3.89-.61-5.34-1.01-5.41-2.66-6.56-2.66-6.56Z"/>
      <path class="cls-1" d="M564.88,134.58s1.5,1.2,2.3,6.53c.21,1.43.37,3.15.46,5.23.07,1.55.12,3.29.08,5.26.02,1.5.17,2.94.47,4.3.49,2.23,1.32,4.25,2.26,6.03.71,1.35,1.5,2.55,2.27,3.6,2.2,2.99,4.26,4.67,4.26,4.67,0,0-3.26-3.42-5.52-8.75-.74-1.76-1.36-3.72-1.75-5.85-.23-1.28-.4-2.62-.41-4.01-.07-2-.19-3.78-.37-5.35-.25-2.12-.59-3.86-.96-5.29-1.37-5.33-3.08-6.37-3.08-6.37h0Z"/>
      <path class="cls-1" d="M546.85,127.45s1.59,1.09,2.78,6.34c.32,1.41.6,3.12.85,5.18.18,1.54.36,3.28.48,5.24.13,1.49.39,2.92.79,4.26.66,2.18,1.63,4.14,2.7,5.84.81,1.29,1.68,2.43,2.53,3.42,2.42,2.82,4.59,4.34,4.59,4.34,0,0-3.51-3.16-6.16-8.31-.87-1.7-1.64-3.61-2.18-5.7-.33-1.26-.6-2.58-.71-3.97-.22-1.99-.47-3.76-.77-5.31-.41-2.09-.88-3.8-1.35-5.2-1.76-5.21-3.55-6.12-3.55-6.12h0Z"/>
      <path class="cls-1" d="M529.45,122.57s1.66.98,3.19,6.14c.41,1.39.81,3.07,1.19,5.12.29,1.52.58,3.24.82,5.2.23,1.48.58,2.89,1.07,4.2.8,2.13,1.9,4.02,3.08,5.65.89,1.24,1.84,2.32,2.75,3.25,2.6,2.65,4.87,4.02,4.87,4.02,0,0-3.71-2.93-6.69-7.89-.98-1.64-1.87-3.49-2.55-5.55-.41-1.24-.77-2.54-.97-3.92-.35-1.97-.72-3.72-1.12-5.24-.54-2.06-1.13-3.73-1.69-5.1-2.1-5.09-3.95-5.87-3.95-5.87h0Z"/>
      <path class="cls-1" d="M510.81,117.8s1.72.86,3.6,5.91c.51,1.35,1.02,3.01,1.54,5.02.39,1.5.8,3.2,1.17,5.13.33,1.46.78,2.84,1.35,4.11.94,2.08,2.17,3.88,3.46,5.43.98,1.17,1.99,2.19,2.96,3.05,2.77,2.47,5.13,3.68,5.13,3.68,0,0-3.9-2.67-7.21-7.41-1.09-1.57-2.11-3.36-2.93-5.36-.49-1.21-.94-2.48-1.24-3.84-.49-1.95-.97-3.66-1.48-5.16-.68-2.02-1.38-3.65-2.04-4.97-2.44-4.93-4.34-5.59-4.34-5.59h0Z"/>
      <path class="cls-1" d="M493.66,116s1.77.74,4,5.64c.6,1.32,1.22,2.93,1.88,4.91.49,1.47,1.02,3.13,1.52,5.04.43,1.43.97,2.78,1.63,4.01,1.08,2.01,2.44,3.72,3.83,5.17,1.06,1.1,2.14,2.04,3.17,2.84,2.94,2.27,5.38,3.32,5.38,3.32,0,0-4.08-2.39-7.71-6.89-1.2-1.49-2.33-3.21-3.29-5.15-.58-1.17-1.11-2.41-1.5-3.75-.62-1.91-1.22-3.58-1.83-5.04-.82-1.97-1.63-3.54-2.38-4.82-2.78-4.75-4.72-5.28-4.72-5.28h0Z"/>
      <path class="cls-1" d="M475.84,114.35s1.82.63,4.36,5.38c.68,1.27,1.41,2.84,2.19,4.77.59,1.44,1.22,3.06,1.84,4.93.52,1.4,1.15,2.71,1.89,3.9,1.21,1.93,2.67,3.56,4.15,4.92,1.12,1.03,2.27,1.9,3.34,2.63,3.08,2.08,5.58,2.97,5.58,2.97,0,0-4.22-2.12-8.13-6.39-1.29-1.41-2.53-3.05-3.61-4.92-.65-1.13-1.26-2.33-1.74-3.64-.74-1.86-1.45-3.5-2.15-4.91-.95-1.91-1.85-3.43-2.68-4.66-3.08-4.56-5.04-4.96-5.04-4.96Z"/>
      <path class="cls-1" d="M458.16,113.15s1.84.56,4.55,5.22c.73,1.25,1.51,2.79,2.36,4.69.64,1.41,1.32,3.02,2.02,4.86.57,1.38,1.24,2.67,2.03,3.83,1.28,1.89,2.79,3.46,4.32,4.77,1.16.99,2.33,1.82,3.44,2.51,3.15,1.97,5.68,2.77,5.68,2.77,0,0-4.29-1.97-8.36-6.09-1.34-1.36-2.64-2.96-3.79-4.79-.69-1.11-1.34-2.29-1.86-3.58-.81-1.84-1.57-3.44-2.32-4.83-1.01-1.88-1.97-3.36-2.84-4.56-3.24-4.45-5.22-4.78-5.22-4.78Z"/>
      <path class="cls-1" d="M438.81,113.2s1.88.42,4.95,4.84c.82,1.19,1.72,2.66,2.73,4.49.75,1.36,1.56,2.9,2.4,4.68.68,1.33,1.45,2.56,2.32,3.65,1.43,1.78,3.06,3.23,4.69,4.41,1.24.9,2.47,1.63,3.62,2.23,3.29,1.71,5.88,2.31,5.88,2.31,0,0-4.44-1.62-8.81-5.41-1.44-1.25-2.87-2.74-4.16-4.48-.78-1.05-1.52-2.17-2.14-3.42-.95-1.77-1.84-3.31-2.7-4.63-1.16-1.79-2.24-3.2-3.2-4.32-3.58-4.18-5.58-4.35-5.58-4.35h0Z"/>
      <path class="cls-1" d="M420,113.97s1.9.31,5.21,4.55c.89,1.14,1.87,2.56,2.98,4.33.82,1.32,1.72,2.81,2.66,4.54.75,1.29,1.59,2.48,2.53,3.52,1.52,1.7,3.24,3.05,4.93,4.14,1.28.83,2.56,1.49,3.74,2.02,3.39,1.52,6,1.97,6,1.97,0,0-4.52-1.37-9.1-4.9-1.51-1.16-3.02-2.57-4.4-4.23-.83-1-1.64-2.08-2.33-3.29-1.05-1.71-2.02-3.2-2.96-4.47-1.26-1.72-2.41-3.06-3.44-4.13-3.81-3.97-5.82-4.03-5.82-4.03h0Z"/>
      <path class="cls-1" d="M402.69,116.36s1.91.23,5.41,4.32c.94,1.1,1.98,2.48,3.16,4.2.88,1.28,1.84,2.73,2.86,4.42.81,1.26,1.7,2.4,2.68,3.4,1.6,1.63,3.37,2.9,5.11,3.92,1.32.77,2.62,1.37,3.83,1.85,3.45,1.37,6.08,1.71,6.08,1.71,0,0-4.58-1.17-9.31-4.5-1.56-1.1-3.13-2.44-4.58-4.04-.88-.96-1.73-2.01-2.47-3.19-1.12-1.66-2.16-3.11-3.15-4.34-1.33-1.66-2.54-2.96-3.61-3.98-3.98-3.8-5.99-3.77-5.99-3.77h0Z"/>
      <path class="cls-1" d="M385.51,119.89s1.92.09,5.69,3.94c1.01,1.03,2.14,2.34,3.44,3.97.96,1.22,2.02,2.6,3.15,4.22.89,1.2,1.86,2.28,2.9,3.21,1.7,1.52,3.56,2.67,5.36,3.56,1.37.68,2.71,1.19,3.95,1.59,3.53,1.13,6.18,1.29,6.18,1.29,0,0-4.65-.86-9.59-3.86-1.63-.99-3.29-2.22-4.85-3.72-.94-.9-1.86-1.89-2.69-3.01-1.23-1.58-2.37-2.95-3.44-4.12-1.44-1.57-2.74-2.78-3.88-3.72-4.23-3.52-6.23-3.35-6.23-3.35h0Z"/>
      <path class="cls-1" d="M368.74,124.13s1.92-.03,5.93,3.57c1.08.97,2.29,2.2,3.69,3.74,1.04,1.15,2.19,2.47,3.41,4,.97,1.14,2,2.16,3.1,3.02,1.8,1.4,3.72,2.43,5.58,3.21,1.41.59,2.78,1.02,4.04,1.33,3.6.9,6.25.89,6.25.89,0,0-4.69-.56-9.82-3.23-1.69-.88-3.42-2-5.07-3.4-1-.84-1.98-1.76-2.87-2.83-1.33-1.5-2.55-2.8-3.69-3.89-1.54-1.47-2.91-2.6-4.11-3.47-4.45-3.24-6.43-2.95-6.43-2.95Z"/>
      <path class="cls-1" d="M349.62,129.46s1.92-.15,6.14,3.19c1.13.9,2.42,2.05,3.91,3.5,1.11,1.08,2.34,2.32,3.66,3.78,1.04,1.08,2.13,2.03,3.29,2.82,1.88,1.29,3.87,2.2,5.77,2.85,1.44.5,2.84.84,4.11,1.08,3.65.68,6.3.5,6.3.5,0,0-4.72-.27-10-2.61-1.74-.78-3.54-1.79-5.28-3.08-1.05-.78-2.08-1.64-3.04-2.65-1.42-1.41-2.72-2.63-3.93-3.65-1.63-1.37-3.07-2.41-4.31-3.2-4.64-2.96-6.6-2.54-6.6-2.54h0Z"/>
      <path class="cls-1" d="M333,136.4s1.9-.28,6.35,2.75c1.19.81,2.56,1.87,4.15,3.22,1.18,1,2.5,2.15,3.92,3.51,1.11,1,2.27,1.87,3.48,2.58,1.97,1.15,4.01,1.92,5.96,2.44,1.48.39,2.89.64,4.18.78,3.69.42,6.32.05,6.32.05,0,0-4.72.07-10.17-1.89-1.8-.65-3.66-1.53-5.48-2.69-1.1-.7-2.2-1.48-3.22-2.43-1.52-1.31-2.9-2.43-4.18-3.36-1.72-1.26-3.23-2.18-4.53-2.89-4.84-2.62-6.77-2.06-6.77-2.06h0Z"/>
      <path class="cls-1" d="M317.22,144.37s1.87-.44,6.55,2.22c1.26.71,2.71,1.66,4.4,2.87,1.26.9,2.66,1.94,4.19,3.18,1.19.91,2.42,1.68,3.68,2.29,2.05.99,4.16,1.58,6.13,1.94,1.5.27,2.93.4,4.23.44,3.71.11,6.3-.47,6.3-.47,0,0-4.7.46-10.29-1.06-1.84-.5-3.77-1.23-5.68-2.24-1.15-.61-2.31-1.3-3.41-2.16-1.62-1.18-3.09-2.19-4.44-3.01-1.82-1.11-3.4-1.91-4.75-2.51-5.04-2.22-6.91-1.5-6.91-1.5h0Z"/>
      <path class="cls-1" d="M301.13,153.63s1.84-.57,6.7,1.74c1.31.62,2.82,1.46,4.6,2.54,1.32.81,2.79,1.75,4.41,2.87,1.25.82,2.53,1.5,3.83,2.02,2.12.84,4.26,1.28,6.26,1.5,1.52.16,2.95.19,4.25.13,3.71-.15,6.25-.92,6.25-.92,0,0-4.66.79-10.34-.32-1.87-.37-3.85-.95-5.83-1.82-1.19-.52-2.4-1.13-3.56-1.9-1.7-1.06-3.24-1.96-4.64-2.68-1.89-.98-3.53-1.66-4.92-2.16-5.18-1.85-7-1-7-1Z"/>
      <path class="cls-1" d="M286.59,164.44s1.78-.72,6.82,1.19c1.35.51,2.93,1.22,4.79,2.16,1.39.7,2.93,1.51,4.63,2.5,1.32.71,2.65,1.29,3.98,1.7,2.18.66,4.35.93,6.36.98,1.53.04,2.96-.06,4.25-.22,3.68-.46,6.15-1.43,6.15-1.43,0,0-4.58,1.17-10.33.53-1.9-.21-3.91-.63-5.96-1.34-1.23-.42-2.48-.93-3.7-1.61-1.78-.92-3.39-1.68-4.85-2.29-1.97-.82-3.65-1.37-5.08-1.75-5.32-1.42-7.06-.43-7.06-.43h0Z"/>
      <path class="cls-1" d="M271.6,176.39s1.71-.87,6.9.59c1.39.39,3.02.96,4.96,1.73,1.44.57,3.05,1.25,4.83,2.09,1.37.6,2.75,1.05,4.12,1.34,2.23.47,4.41.54,6.42.42,1.52-.09,2.94-.32,4.21-.59,3.63-.78,6-1.96,6-1.96,0,0-4.46,1.57-10.24,1.44-1.91-.04-3.95-.29-6.05-.81-1.26-.31-2.55-.71-3.83-1.27-1.86-.76-3.52-1.38-5.03-1.86-2.03-.64-3.76-1.04-5.22-1.3-5.42-.94-7.07.2-7.07.2h0Z"/>
      <path class="cls-1" d="M258.1,189.83s1.64-1.01,6.92.04c1.42.28,3.09.72,5.08,1.33,1.48.46,3.14,1,4.98,1.7,1.42.49,2.82.83,4.21,1.01,2.26.29,4.44.19,6.43-.09,1.51-.21,2.91-.55,4.15-.92,3.56-1.06,5.83-2.43,5.83-2.43,0,0-4.32,1.92-10.09,2.24-1.91.11-3.96.03-6.1-.33-1.29-.21-2.6-.51-3.92-.97-1.91-.61-3.62-1.1-5.16-1.45-2.08-.48-3.83-.74-5.3-.88-5.48-.51-7.04.75-7.04.75h0Z"/>
      <path class="cls-1" d="M244.82,204.62s1.85-1.58,6.79-1.37c1.46.06,3.17.29,5.21.72,1.52.33,3.21.76,5.09,1.38,1.42.42,2.83.71,4.21.83,2.26.2,4.41.04,6.37-.3,1.49-.26,2.87-.63,4.09-1.03,3.51-1.15,5.72-2.57,5.72-2.57,0,0-4.2,2.01-9.95,2.5-1.88.16-3.93.14-6.06-.13-1.28-.17-2.6-.41-3.93-.81-1.97-.53-3.73-.92-5.31-1.14-2.13-.3-3.93-.35-5.44-.26-5.08.31-6.79,2.18-6.79,2.18h0Z"/>
      <path class="cls-1" d="M234.58,219.43s1.72-1.72,6.66-1.91c1.46-.06,3.19.03,5.25.3,1.54.2,3.26.5,5.18.97,1.45.3,2.88.48,4.26.49,2.27.02,4.4-.31,6.33-.81,1.47-.38,2.81-.85,4-1.35,3.4-1.43,5.49-3.02,5.49-3.02,0,0-4.03,2.34-9.72,3.29-1.86.31-3.9.46-6.05.35-1.29-.06-2.62-.2-3.98-.5-2-.37-3.79-.62-5.39-.71-2.15-.13-3.95-.03-5.44.18-5.04.71-6.59,2.72-6.59,2.72h0Z"/>
      <path class="cls-1" d="M225.57,235.13s1.58-1.85,6.49-2.43c1.45-.17,3.18-.22,5.26-.11,1.55.08,3.29.24,5.24.56,1.47.19,2.91.25,4.29.16,2.26-.15,4.36-.66,6.25-1.3,1.44-.49,2.73-1.07,3.88-1.66,3.28-1.69,5.24-3.44,5.24-3.44,0,0-3.83,2.65-9.43,4.04-1.83.46-3.86.76-6.01.82-1.29.04-2.63,0-4-.18-2.03-.22-3.83-.32-5.43-.29-2.16.04-3.94.28-5.41.61-4.97,1.11-6.36,3.23-6.36,3.23h0Z"/>
      <path class="cls-1" d="M217.96,251.67s1.34-2.16,6.09-3.28c1.42-.33,3.13-.56,5.21-.64,1.55-.06,3.29-.05,5.27.11,1.48.07,2.92.02,4.29-.19,2.24-.34,4.3-1.01,6.12-1.8,1.39-.6,2.64-1.29,3.73-1.97,3.13-1.95,4.95-3.85,4.95-3.85,0,0-3.61,2.95-9.08,4.78-1.79.6-3.78,1.07-5.92,1.3-1.28.14-2.62.22-4.01.14-2.05-.05-3.86,0-5.45.18-2.15.24-3.91.66-5.34,1.15-4.76,1.64-5.87,4.05-5.87,4.05h0Z"/>
      <path class="cls-1" d="M211.13,268.42s1.26-2.08,6.01-3.45c1.4-.4,3.1-.73,5.17-.95,1.54-.17,3.29-.29,5.26-.3,1.48-.05,2.91-.22,4.26-.54,2.21-.52,4.2-1.35,5.95-2.29,1.34-.72,2.53-1.5,3.56-2.27,2.96-2.2,4.61-4.24,4.61-4.24,0,0-3.35,3.23-8.65,5.51-1.74.75-3.68,1.37-5.79,1.78-1.27.25-2.6.43-3.98.47-2.03.11-3.83.31-5.4.59-2.12.39-3.84.91-5.24,1.47-4.72,1.89-5.75,4.21-5.75,4.21h0Z"/>
      <path class="cls-1" d="M205.18,286.71s1.09-2.17,5.73-3.9c1.37-.51,3.04-.96,5.08-1.35,1.53-.29,3.25-.54,5.22-.7,1.47-.16,2.88-.45,4.2-.86,2.16-.69,4.08-1.67,5.76-2.74,1.28-.82,2.4-1.69,3.37-2.53,2.79-2.42,4.27-4.58,4.27-4.58,0,0-3.1,3.48-8.21,6.15-1.67.88-3.57,1.65-5.64,2.22-1.25.34-2.55.63-3.93.77-2.02.27-3.79.6-5.34,1.01-2.08.55-3.76,1.2-5.12,1.87-4.57,2.25-5.41,4.64-5.41,4.64h0Z"/>
      <path class="cls-1" d="M201.16,304.53s.94-2.25,5.44-4.29c1.33-.6,2.96-1.18,4.97-1.7,1.5-.39,3.21-.77,5.16-1.07,1.46-.27,2.85-.65,4.13-1.16,2.11-.84,3.96-1.96,5.55-3.14,1.22-.9,2.28-1.85,3.19-2.76,2.61-2.61,3.94-4.87,3.94-4.87,0,0-2.84,3.69-7.75,6.72-1.61.99-3.44,1.9-5.47,2.61-1.22.43-2.5.81-3.87,1.05-2,.41-3.74.86-5.26,1.38-2.04.69-3.67,1.46-4.97,2.23-4.4,2.57-5.07,5.01-5.07,5.01h0Z"/>
      <path class="cls-1" d="M198.19,322.42s.8-2.3,5.17-4.61c1.29-.68,2.88-1.35,4.86-2,1.48-.48,3.16-.96,5.09-1.38,1.44-.36,2.8-.82,4.05-1.41,2.05-.96,3.83-2.19,5.35-3.47,1.16-.98,2.16-1.99,3.01-2.95,2.45-2.76,3.64-5.1,3.64-5.1,0,0-2.61,3.86-7.33,7.18-1.55,1.09-3.32,2.11-5.3,2.94-1.19.5-2.45.96-3.8,1.28-1.97.53-3.68,1.09-5.16,1.7-2,.82-3.57,1.68-4.83,2.52-4.23,2.83-4.76,5.31-4.76,5.31h0Z"/>
      <path class="cls-1" d="M197.31,340.64s.58-2.36,4.71-5.09c1.22-.8,2.74-1.62,4.65-2.46,1.42-.62,3.05-1.26,4.93-1.86,1.4-.49,2.71-1.08,3.9-1.79,1.95-1.15,3.6-2.55,5-3.97,1.06-1.08,1.96-2.18,2.72-3.23,2.17-2.99,3.14-5.43,3.14-5.43,0,0-2.24,4.09-6.61,7.84-1.43,1.23-3.1,2.41-5,3.43-1.14.61-2.35,1.19-3.66,1.63-1.91.72-3.56,1.44-4.98,2.18-1.91,1-3.4,2.02-4.57,2.97-3.94,3.22-4.23,5.74-4.23,5.74Z"/>
      <path class="cls-1" d="M196.83,358.34s.46-2.39,4.46-5.3c1.18-.86,2.66-1.75,4.52-2.68,1.39-.69,2.98-1.41,4.84-2.1,1.34-.55,2.58-1.18,3.69-1.9,1.86-1.21,3.4-2.63,4.68-4.05.72-.81,1.36-1.62,1.91-2.41,2.38-3.39,3.28-6.28,3.28-6.28,0,0-1.86,4.07-5.98,7.92-1.33,1.24-2.89,2.44-4.7,3.51-1.07.63-2.22,1.24-3.48,1.73-1.46.63-2.77,1.24-3.92,1.88-2.32,1.28-4.06,2.56-5.36,3.73-3.78,3.41-3.94,5.94-3.94,5.94h0Z"/>
      <path class="cls-1" d="M198.13,377.38s.26-2.42,4-5.66c1.1-.96,2.5-1.97,4.28-3.05,1.33-.81,2.85-1.65,4.64-2.5,1.29-.66,2.47-1.39,3.52-2.21,1.75-1.36,3.16-2.9,4.32-4.43.65-.86,1.22-1.73,1.7-2.56,2.09-3.58,2.74-6.53,2.74-6.53,0,0-1.51,4.21-5.29,8.39-1.22,1.35-2.67,2.68-4.39,3.9-1.01.72-2.11,1.42-3.32,2.02-1.4.75-2.65,1.47-3.75,2.2-2.21,1.47-3.83,2.89-5.03,4.17-3.48,3.71-3.43,6.25-3.43,6.25h0Z"/>
      <path class="cls-1" d="M201.12,395.41s.04-2.43,3.46-6.01c1.01-1.05,2.31-2.19,3.98-3.43,1.25-.92,2.69-1.91,4.39-2.91,1.22-.77,2.33-1.61,3.3-2.52,1.62-1.52,2.88-3.18,3.89-4.81.57-.92,1.05-1.83,1.46-2.7,1.75-3.76,2.13-6.76,2.13-6.76,0,0-1.11,4.33-4.49,8.84-1.09,1.45-2.41,2.91-4.01,4.28-.94.81-1.97,1.61-3.12,2.31-1.33.87-2.51,1.71-3.53,2.54-2.06,1.67-3.54,3.23-4.62,4.62-3.13,4.02-2.84,6.54-2.84,6.54h0Z"/>
      <path class="cls-1" d="M205.36,414.07s-.16-2.43,2.96-6.26c.92-1.13,2.13-2.37,3.69-3.74,1.17-1.02,2.53-2.12,4.14-3.26,1.15-.87,2.19-1.79,3.09-2.78,1.49-1.64,2.62-3.4,3.49-5.1.5-.96.9-1.91,1.24-2.81,1.44-3.89,1.58-6.91,1.58-6.91,0,0-.76,4.41-3.77,9.18-.97,1.54-2.17,3.1-3.65,4.59-.87.89-1.83,1.76-2.92,2.56-1.25.98-2.36,1.9-3.32,2.81-1.92,1.83-3.27,3.5-4.24,4.97-2.79,4.26-2.3,6.75-2.3,6.75h0Z"/>
      <path class="cls-1" d="M210.84,431.35s-.31-2.41,2.55-6.44c.84-1.19,1.97-2.5,3.44-3.97,1.1-1.09,2.38-2.28,3.92-3.52,1.1-.94,2.07-1.93,2.9-2.97,1.38-1.73,2.39-3.56,3.16-5.32.43-.99.78-1.96,1.05-2.89,1.19-3.97,1.13-6.99,1.13-6.99,0,0-.48,4.45-3.17,9.4-.87,1.6-1.97,3.23-3.35,4.82-.82.94-1.71,1.87-2.75,2.74-1.19,1.06-2.23,2.05-3.13,3.02-1.8,1.95-3.04,3.71-3.91,5.24-2.51,4.43-1.86,6.88-1.86,6.88h0Z"/>
      <path class="cls-1" d="M217.02,447.21s-.45-2.39,2.19-6.58c.78-1.23,1.83-2.61,3.21-4.16,1.04-1.16,2.25-2.41,3.72-3.73,1.04-1,1.96-2.05,2.73-3.13,1.28-1.81,2.19-3.69,2.85-5.49.38-1.02.66-2,.89-2.94.96-4.03.73-7.05.73-7.05,0,0-.22,4.47-2.63,9.57-.77,1.64-1.78,3.34-3.07,5-.76.98-1.61,1.97-2.59,2.89-1.13,1.12-2.11,2.18-2.95,3.19-1.69,2.05-2.82,3.87-3.6,5.45-2.26,4.56-1.47,6.98-1.47,6.98h0Z"/>
      <path class="cls-1" d="M224.74,464.52s-.6-2.36,1.78-6.7c.7-1.28,1.66-2.72,2.95-4.35.96-1.22,2.1-2.54,3.48-3.96.98-1.07,1.83-2.16,2.53-3.3,1.17-1.89,1.96-3.82,2.51-5.65.31-1.04.54-2.04.7-2.99.71-4.08.29-7.08.29-7.08,0,0,.05,4.47-2.03,9.71-.67,1.69-1.57,3.44-2.75,5.18-.7,1.03-1.48,2.06-2.41,3.05-1.05,1.19-1.98,2.3-2.75,3.37-1.56,2.15-2.58,4.04-3.26,5.66-1.97,4.69-1.04,7.06-1.04,7.06h0Z"/>
      <path class="cls-1" d="M232.75,480.11s-.73-2.32,1.38-6.79c.62-1.32,1.5-2.81,2.69-4.51.89-1.27,1.95-2.66,3.24-4.15.91-1.12,1.7-2.27,2.33-3.44,1.05-1.95,1.73-3.93,2.17-5.79.25-1.05.42-2.07.53-3.03.47-4.12-.12-7.08-.12-7.08,0,0,.31,4.46-1.46,9.81-.57,1.72-1.37,3.53-2.45,5.33-.64,1.07-1.36,2.15-2.23,3.18-.98,1.25-1.84,2.41-2.55,3.52-1.43,2.23-2.34,4.18-2.92,5.84-1.69,4.8-.62,7.1-.62,7.1h0Z"/>
      <path class="cls-1" d="M241.33,495.69s-.82-2.29,1.14-6.84c.58-1.34,1.4-2.86,2.53-4.61.84-1.3,1.85-2.73,3.09-4.27.87-1.15,1.62-2.33,2.21-3.52.98-1.99,1.59-3.99,1.96-5.86.21-1.06.34-2.08.42-3.04.32-4.13-.37-7.07-.37-7.07,0,0,.47,4.45-1.11,9.86-.51,1.74-1.24,3.57-2.26,5.42-.6,1.09-1.28,2.19-2.11,3.26-.94,1.28-1.75,2.48-2.42,3.61-1.35,2.28-2.19,4.26-2.71,5.94-1.52,4.86-.37,7.12-.37,7.12Z"/>
      <path class="cls-1" d="M251.35,512.5s-.95-2.24.73-6.89c.5-1.37,1.23-2.94,2.25-4.75.77-1.35,1.69-2.84,2.84-4.44.8-1.2,1.48-2.42,2-3.64.86-2.04,1.35-4.08,1.61-5.97.15-1.07.22-2.1.24-3.06.08-4.15-.79-7.04-.79-7.04,0,0,.73,4.41-.53,9.91-.41,1.77-1.03,3.64-1.93,5.54-.53,1.12-1.15,2.27-1.92,3.38-.86,1.33-1.6,2.58-2.2,3.75-1.21,2.36-1.93,4.39-2.36,6.09-1.23,4.94.05,7.13.05,7.13h0Z"/>
      <path class="cls-1" d="M261.42,526.76s-1.04-2.2.44-6.92c.44-1.39,1.1-2.99,2.05-4.84.71-1.38,1.56-2.9,2.65-4.56.75-1.24,1.37-2.48,1.84-3.72.78-2.08,1.17-4.13,1.36-6.03.1-1.08.13-2.11.11-3.07-.1-4.14-1.09-7-1.09-7,0,0,.92,4.38-.11,9.92-.33,1.78-.87,3.68-1.69,5.62-.49,1.15-1.05,2.31-1.77,3.46-.8,1.37-1.49,2.64-2.04,3.84-1.11,2.41-1.75,4.47-2.1,6.19-1.02,4.99.36,7.12.36,7.12Z"/>
    </g>
  </g>
  <g id="Rechter-draak">
    <g id="Lichaam">
      <g id="Staart">
        <path class="cls-9" d="M669.81,644.47s2.76,48.25-42.38,63.73c-45.15,15.48-114.56-13.28-126.84-16.31-12.29-3.03-37.3,45.67-37.3,45.67,0,0,107.17,41.26,170.28,4.32,71.56-41.88,52.21-113.2,52.21-113.2l-15.97,15.78Z"/>
        <path class="cls-9" d="M716.51,604.36s-16.77,21.28-16.61,41.01c.16,19.73,5.82,29.99,5.82,29.99,0,0-19.97-2.64-23.12-18.02-3.49-17.06.16-18.18.16-18.18,0,0-8.49,5.75-12.42,11.5-4.02,5.88-8.6,16.35-8.6,16.35,0,0-10.01-20.11,11.05-43.28,18.91-20.82,43.73-19.36,43.73-19.36Z"/>
        <path class="cls-4" d="M669.04,638.69s3.41-9.86,11.57-16.89c8.44-7.27,16.64-7.4,16.64-7.4,0,0-9,4.2-15.15,9.19-5.41,4.39-13.07,15.1-13.07,15.1Z"/>
        <path class="cls-10" d="M669.04,638.69s3.41-9.86,11.57-16.89c8.44-7.27,16.64-7.4,16.64-7.4,0,0-9,4.2-15.15,9.19-5.41,4.39-13.07,15.1-13.07,15.1Z"/>
        <path class="cls-7" d="M687.25,665.98s-10.72,107.03-111.3,119.69c-78.86,9.93-144.79-26.93-172.01-70.91-20.5-33.12,56.47-17.71,56.47-17.71,0,0,21.23,7.91,36.71,23.94,13.65,14.13,57.66,34.11,97.66,24.96,77.85-17.82,92.48-79.98,92.48-79.98Z"/>
      </g>
      <path class="cls-8" d="M474.92,769s3.03.34,7.75.13c2.27-.1,4.89-.32,7.75-.81,1.96-.33,4.02-.8,6.11-1.42,1.32-.39,2.65-.85,3.97-1.4,1.28-.53,2.55-1.16,3.8-1.85,1.82-1.02,3.6-2.17,5.31-3.48,1.66-1.28,3.24-2.67,4.71-4.23,2.11-2.24,3.97-4.73,5.54-7.57l.33-.47-.94-.65-.33.47c-2.22,2.6-4.73,4.69-7.38,6.55-2.72,1.91-5.59,3.41-8.48,4.73-1.8.83-3.6,1.55-5.36,2.25-1.88.75-3.7,1.46-5.47,2.09-2.41.85-4.68,1.59-6.77,2.18-6.18,1.75-10.54,2.35-10.54,2.35h-.57s0,1.15,0,1.15h.57s0,0,0,0Z"/>
      <path class="cls-8" d="M438.27,743.16s3.55.76,9.15,1.25c2.69.24,5.82.42,9.26.38,2.37-.02,4.86-.16,7.43-.44,1.62-.18,3.27-.41,4.93-.74,1.62-.32,3.24-.73,4.85-1.2,2.39-.71,4.75-1.57,7.06-2.58,2.3-1.01,4.53-2.16,6.66-3.5,3.19-2,6.1-4.34,8.66-7.09l.42-.39-.77-.85-.42.39c-3.16,2.43-6.68,4.24-10.37,5.74-3.65,1.49-7.46,2.54-11.27,3.4-2.33.53-4.66.96-6.94,1.38-2.4.44-4.75.86-7.01,1.21-3.05.46-5.92.84-8.53,1.12-7.68.8-12.99.78-12.99.78l-.57-.06-.13,1.14.57.06h0Z"/>
      <path class="cls-8" d="M527.01,781.63s2.4.35,5.77.15c1.78-.11,3.77-.39,5.82-.97,1.55-.44,3.07-1.08,4.51-1.92.97-.57,1.9-1.23,2.72-2.03,1.51-1.47,2.74-3.29,3.47-5.46.58-1.73.9-3.64.75-5.81-.16-2.37-.8-4.96-2.1-7.91l-.16-.55-1.1.32.16.55c.4,2.74.31,5.04,0,7.09-.36,2.43-1.27,4.29-2.4,5.87-.73,1.03-1.6,1.88-2.52,2.67-.99.85-2.01,1.64-3.1,2.3-1.47.89-2.95,1.66-4.4,2.25-4.03,1.66-7.43,2.3-7.43,2.3h-.57s.01,1.15.01,1.15h.57Z"/>
      <path class="cls-8" d="M580.72,780.94s2.33-.25,5.53-1.21c1.66-.5,3.49-1.18,5.34-2.14,1.38-.71,2.71-1.59,3.96-2.61.84-.69,1.63-1.45,2.31-2.31,1.3-1.64,2.29-3.54,2.8-5.62.44-1.81.58-3.74.18-5.81-.45-2.34-1.44-4.79-3.29-7.42l-.26-.51-1.02.52.26.51c.89,2.55,1.13,4.76,1.07,6.78-.07,2.3-.81,4.19-1.81,5.9-.62,1.08-1.4,2.04-2.22,2.97-.86.99-1.76,1.94-2.72,2.8-1.28,1.15-2.57,2.2-3.84,3.1-3.56,2.51-6.59,3.96-6.59,3.96l-.55.15.3,1.11.55-.15h0Z"/>
      <path class="cls-8" d="M627.99,761.87s1.95-.81,4.11-2.45c.86-.65,1.65-1.43,2.4-2.34.77-.94,1.34-2.03,1.74-3.18.29-.83.44-1.71.41-2.6-.05-1.54-.52-3.15-1.66-4.62-.75-.96-1.71-1.91-3.09-2.71-1.39-.81-3.02-1.49-5.18-2.07l-.51-.25-.51,1.03.51.25c1.94,1.49,3.15,2.9,4.09,4.23.43.61.68,1.21.94,1.78.38.85.41,1.66.41,2.43s-.05,1.44-.25,2.13c-.24.85-.5,1.67-.88,2.45-1.38,2.84-3.18,4.99-3.18,4.99l-.47.33.66.94.47-.33h0Z"/>
      <g id="Linker-been">
        <path class="cls-9" d="M397.51,711.66s.02-.06.02-.06l2.95-187.11s-11.3,39.82-28.26,59c-16.95,19.18-22.85,62.4-22.85,62.4,0,0-37.86-8.47-52.58,30.71-6.71,17.86-5.51,34.28,1.51,46.65-4.59,2.79-12,8.43-10.57,15.06,1.19,5.51,7.01,9.19,15.23,9.43,0,.58.05,1.16.18,1.76,1.5,6.94,10.34,10.97,22.07,8.9,2.78,9.19,18.51,12.86,36.52,3.37,18.52-9.76,33.5-29.77,35.76-48.5.07-.6.08-1.13.03-1.6h0Z"/>
        <path class="cls-4" d="M356.7,709.09s-9.84-3.75-20.53-2.08c-11.07,1.72-16.43,7.85-16.43,7.85,0,0,9.03-4.12,16.86-5.57,6.88-1.28,20.1-.2,20.1-.2h0Z"/>
        <path class="cls-10" d="M356.7,709.09s-9.84-3.75-20.53-2.08c-11.07,1.72-16.43,7.85-16.43,7.85,0,0,9.03-4.12,16.86-5.57,6.88-1.28,20.1-.2,20.1-.2h0Z"/>
        <path class="cls-4" d="M374.15,670.66s-4.95-9.2-14.14-14.86c-9.51-5.86-17.62-4.7-17.62-4.7,0,0,9.56,2.73,16.43,6.7,6.05,3.49,15.32,12.86,15.32,12.86h0Z"/>
        <path class="cls-10" d="M374.15,670.66s-4.95-9.2-14.14-14.86c-9.51-5.86-17.62-4.7-17.62-4.7,0,0,9.56,2.73,16.43,6.7,6.05,3.49,15.32,12.86,15.32,12.86h0Z"/>
        <path class="cls-4" d="M317.89,732.18s-15.77,5.37-14.99,15.67c.5,6.65,6.94,9.26,6.94,9.26,0,0-3.42-4.16-4.02-6.77-1.91-8.29,7.92-14.95,12.07-18.16h0Z"/>
        <path class="cls-10" d="M317.89,732.18s-15.77,5.37-14.99,15.67c.5,6.65,6.94,9.26,6.94,9.26,0,0-3.42-4.16-4.02-6.77-1.91-8.29,7.92-14.95,12.07-18.16h0Z"/>
        <path class="cls-4" d="M339.68,740.32s-15.77,5.37-14.99,15.67c.5,6.65,6.98,9.33,6.98,9.33,0,0-3.46-4.23-4.06-6.84-1.91-8.29,7.92-14.95,12.07-18.16h0Z"/>
        <path class="cls-10" d="M339.68,740.32s-15.77,5.37-14.99,15.67c.5,6.65,6.98,9.33,6.98,9.33,0,0-3.46-4.23-4.06-6.84-1.91-8.29,7.92-14.95,12.07-18.16h0Z"/>
        <path class="cls-4" d="M302.31,721.21s-16.21,6.85-14.66,17.07c.53,3.52,3.35,6.23,7.23,7.84l.05.02h0c-2.21-1.59-3.68-3.7-4.22-6.18-1.79-8.32,7.46-15.54,11.61-18.75h0Z"/>
        <path class="cls-10" d="M302.31,721.21s-16.21,6.85-14.66,17.07c.53,3.52,3.35,6.23,7.23,7.84l.05.02h0c-2.21-1.59-3.68-3.7-4.22-6.18-1.79-8.32,7.46-15.54,11.61-18.75h0Z"/>
      </g>
      <g id="Rechter-been">
        <path class="cls-9" d="M503.1,711.66s-.02-.06-.02-.06l-2.95-187.11s11.3,39.82,28.26,59c16.95,19.18,22.85,62.4,22.85,62.4,0,0,37.87-8.47,52.58,30.71,6.71,17.86,5.51,34.28-1.51,46.65,4.59,2.79,12,8.43,10.57,15.06-1.19,5.51-7.01,9.19-15.23,9.43,0,.58-.05,1.16-.18,1.76-1.5,6.94-10.34,10.97-22.07,8.9-2.78,9.19-18.51,12.86-36.52,3.37-18.52-9.76-33.5-29.77-35.76-48.5-.07-.6-.08-1.13-.03-1.6h0Z"/>
        <path class="cls-4" d="M543.91,709.09s9.84-3.75,20.53-2.08c11.07,1.72,16.43,7.85,16.43,7.85,0,0-9.03-4.12-16.86-5.57-6.88-1.28-20.1-.2-20.1-.2h0Z"/>
        <path class="cls-10" d="M543.91,709.09s9.84-3.75,20.53-2.08c11.07,1.72,16.43,7.85,16.43,7.85,0,0-9.03-4.12-16.86-5.57-6.88-1.28-20.1-.2-20.1-.2h0Z"/>
        <path class="cls-4" d="M526.8,670.66s4.95-9.2,14.14-14.86c9.51-5.86,17.62-4.7,17.62-4.7,0,0-9.56,2.73-16.43,6.7-6.05,3.49-15.32,12.86-15.32,12.86h0Z"/>
        <path class="cls-10" d="M526.8,670.66s4.95-9.2,14.14-14.86c9.51-5.86,17.62-4.7,17.62-4.7,0,0-9.56,2.73-16.43,6.7-6.05,3.49-15.32,12.86-15.32,12.86h0Z"/>
        <path class="cls-4" d="M582.72,732.18s15.77,5.37,14.99,15.67c-.5,6.65-6.94,9.26-6.94,9.26,0,0,3.42-4.16,4.02-6.77,1.91-8.29-7.92-14.95-12.07-18.16h0Z"/>
        <path class="cls-10" d="M582.72,732.18s15.77,5.37,14.99,15.67c-.5,6.65-6.94,9.26-6.94,9.26,0,0,3.42-4.16,4.02-6.77,1.91-8.29-7.92-14.95-12.07-18.16h0Z"/>
        <path class="cls-4" d="M560.93,740.32s15.77,5.37,14.99,15.67c-.5,6.65-6.98,9.33-6.98,9.33,0,0,3.46-4.23,4.06-6.84,1.91-8.29-7.92-14.95-12.07-18.16h0Z"/>
        <path class="cls-10" d="M560.93,740.32s15.77,5.37,14.99,15.67c-.5,6.65-6.98,9.33-6.98,9.33,0,0,3.46-4.23,4.06-6.84,1.91-8.29-7.92-14.95-12.07-18.16h0Z"/>
        <path class="cls-4" d="M598.3,721.21s16.21,6.85,14.66,17.07c-.53,3.52-3.35,6.23-7.23,7.84l-.05.02h0c2.21-1.59,3.68-3.7,4.22-6.18,1.79-8.32-7.46-15.54-11.61-18.75Z"/>
        <path class="cls-10" d="M598.3,721.21s16.21,6.85,14.66,17.07c-.53,3.52-3.35,6.23-7.23,7.84l-.05.02h0c2.21-1.59,3.68-3.7,4.22-6.18,1.79-8.32-7.46-15.54-11.61-18.75Z"/>
      </g>
      <g id="Buik">
        <path class="cls-9" d="M455.24,723.13c9.5-.14,80.69-3.84,80.93-69.62.25-65.78-38.13-128.89-38.62-154.59-.49-25.7-92.68,4.18-92.68,4.18,0,0-38.14,97.59-37.98,151.74.2,67.04,78.62,68.43,88.35,68.29h0Z"/>
        <path class="cls-7" d="M492.11,523.9s-22.12,5.94-42.28,6.05c-20.78.11-41.81-5.06-41.81-5.06-1.67,4.57-3.35,9.15-4.95,13.75-3.68,10.59-7.77,23.19-10.87,33.81-4.02,13.73-8.04,28.68-10.85,42.7-2.58,12.88-5.19,27.08-4.87,40.43.17,7.14.77,12.67,3.02,19.43.91,2.72,2.08,5.37,3.45,7.9,10.81,20.01,33.83,28.32,55.23,31.44,4.28.62,10.95,1.11,15.66,1.04,24.78-.36,54.32-10.28,65.61-33.97,2.55-5.34,4.11-10.96,4.8-16.83,1.95-16.52-1.78-34.4-5.17-50.36-4.41-20.77-10.48-41.19-16.99-61.4-1.63-5.06-3.33-10.1-5.06-15.13-1.59-4.61-3.25-9.2-4.92-13.79h0Z"/>
        <path class="cls-8" d="M405.92,534.32s4.33,2.48,11.66,5.37c4.96,1.95,11.21,4.16,18.52,5.69,2.63.55,5.38,1.02,8.25,1.34,1.82.2,3.68.35,5.57.39,3.02.07,6.13-.08,9.31-.41,8.09-.84,16.5-2.95,25.03-6.46,3.3-1.36,6.62-2.9,9.92-4.74l-.29-.58c-3.4,1.54-6.78,2.83-10.15,3.85-8.55,2.59-16.9,3.45-24.77,3.58-2.73.05-5.4-.03-8-.11-2.74-.08-5.41-.19-8-.37-3.68-.25-7.18-.58-10.46-1.05-6.05-.87-11.34-2-15.56-3.22-6.75-1.95-10.72-3.85-10.72-3.85l-.3.57h0Z"/>
        <path class="cls-8" d="M398.96,565.54s4.99,2.78,13.44,5.99c5.69,2.16,12.89,4.58,21.28,6.27,3.01.61,6.17,1.12,9.45,1.47,2.08.22,4.2.38,6.38.44,3.45.08,7.01-.06,10.64-.4,9.26-.87,18.93-3.12,28.77-6.93,3.82-1.48,7.66-3.16,11.49-5.17l-.28-.58c-3.93,1.71-7.83,3.14-11.71,4.28-9.85,2.88-19.47,3.88-28.52,4.06-3.51.07-6.92-.02-10.24-.15-2.09-.08-4.13-.16-6.14-.28-3.19-.19-6.26-.43-9.21-.76-8.32-.93-15.6-2.38-21.34-3.97-8.61-2.39-13.72-4.81-13.72-4.81l-.3.57h0Z"/>
        <path class="cls-8" d="M391.43,595.79s5.71,3.33,15.47,7.07c6.55,2.51,14.87,5.29,24.61,7.17,3.48.67,7.13,1.23,10.93,1.6,2.4.23,4.85.4,7.37.44,3.98.07,8.08-.12,12.28-.54,10.59-1.05,21.74-3.68,33.18-8.12,4.39-1.7,8.84-3.66,13.29-5.97l-.28-.58c-4.55,2.01-9.05,3.71-13.52,5.08-11.47,3.52-22.57,4.89-32.96,5.25-4.08.14-8.04.09-11.88-.02-2.42-.07-4.8-.16-7.12-.29-3.7-.21-7.26-.5-10.67-.9-9.65-1.12-18.05-2.92-24.64-4.87-9.92-2.92-15.75-5.9-15.75-5.9l-.31.57h0Z"/>
        <path class="cls-8" d="M383.97,625.42s6.38,4.66,17.08,9.93c7.44,3.67,16.91,7.71,27.87,10.49,4.03,1.02,8.24,1.87,12.63,2.46,2.79.37,5.65.64,8.57.75,4.66.17,9.45-.02,14.33-.59,12.27-1.42,25-5.28,37.71-12.34,4.73-2.63,9.47-5.68,14.16-9.28l-.38-.52c-4.83,3.31-9.65,6.12-14.49,8.42-12.75,6.07-25.4,8.67-37.37,9.39-4.69.28-9.28.24-13.74.02-2.79-.13-5.54-.32-8.23-.58-4.25-.42-8.35-.99-12.3-1.72-10.88-2.02-20.47-5.08-27.99-8.16-10.92-4.48-17.47-8.78-17.47-8.78l-.37.53h0Z"/>
        <path class="cls-8" d="M379.98,661.8s6.67,5.13,18.04,10.8c7.87,3.93,17.95,8.2,29.71,11.02,4.29,1.03,8.79,1.86,13.48,2.4,2.97.34,6.02.57,9.13.62,4.93.08,10.02-.22,15.22-.92,12.83-1.73,26.28-5.99,39.97-13.52,5.03-2.77,10.11-5.96,15.18-9.69l-.37-.53c-5.21,3.45-10.38,6.39-15.52,8.83-13.75,6.54-27.16,9.54-39.73,10.58-5.02.41-9.9.48-14.64.35-2.99-.08-5.91-.22-8.78-.46-4.54-.37-8.92-.93-13.11-1.67-11.66-2.05-21.84-5.34-29.78-8.68-11.58-4.88-18.43-9.65-18.43-9.65l-.38.52h0Z"/>
      </g>
      <g id="Linker-arm">
        <path class="cls-9" d="M364.37,501.06s-11.45,16.25-25.2,27.88c-13.76,11.63-20.35,14.93-20.35,14.93,0,0-17.44-22.5-39.14-9.6-21.71,12.9-18.3,76,40.11,68.5,58.41-7.5,74.17-37.78,74.17-37.78l19.37-65.96-48.94,2.03h0Z"/>
        <path class="cls-10" d="M375.21,576.54s-6.77,3.56-17.35,7.47c-3.56,1.32-7.54,2.65-11.84,3.97-3.17.97-6.5,1.91-9.95,2.8-1.32.34-2.65.68-4,1.02-1.98.5-3.98.99-6.02,1.43-5.5,1.21-11.2,2.1-17.05,2.42-5.73.32-11.53.18-17.39-.79,5.16,1.67,10.36,2.72,15.59,3.23,3.6.35,7.17.45,10.71.33,4.25-.14,8.42-.58,12.46-1.27,1.78-.31,3.54-.68,5.25-1.1,2.36-.59,4.65-1.27,6.86-2.02,3.53-1.2,6.85-2.56,9.93-3.96,2.57-1.17,4.96-2.37,7.16-3.56,9.76-5.29,15.64-9.98,15.64-9.98h0Z"/>
        <path class="cls-7" d="M253.42,522.51c-.38-4.69,3.13-8.81,7.82-9.18l17.01-1.36c4.69-.38,8.81,3.13,9.18,7.82l6.87,85.78c.38,4.69-3.13,8.81-7.82,9.18l-17.01,1.36c-4.69.38-8.81-3.13-9.18-7.82l-6.87-85.78h0Z"/>
        <path class="cls-9" d="M262.66,572.63c-13.52.81-24.15,8.49-23.7,17.14.44,8.65,11.78,15.02,25.3,14.21,13.52-.81,24.15-8.49,23.7-17.14-.44-8.65-11.78-15.02-25.3-14.21h0Z"/>
        <path class="cls-9" d="M259.55,530.82c-13.49-1.06-25.06,5.1-25.83,13.73-.77,8.64,9.56,16.51,23.05,17.57,13.49,1.06,25.06-5.1,25.83-13.73.77-8.64-9.56-16.51-23.05-17.57Z"/>
        <path class="cls-9" d="M293.55,530.94c-13.66-.24-24.97,7.34-25.24,16.92-.27,9.58,10.6,17.55,24.26,17.79,13.66.24,24.97-7.34,25.24-16.92.27-9.58-10.6-17.55-24.26-17.79h0Z"/>
        <path class="cls-9" d="M276.41,536.8c-6.57-4.57-8.36-5.55-16.87-5.97-13.51-.68-25.06,5.1-25.83,13.73-.25,2.86.02,3.82,1.58,6.56-.4-2.05-.34-2.66-.09-4.14,1.46-8.55,12.35-14.79,25.83-13.74,9.03.71,8.76,1.59,15.38,3.56h0Z"/>
        <path class="cls-10" d="M276.41,536.8c-6.57-4.57-8.36-5.55-16.87-5.97-13.51-.68-25.06,5.1-25.83,13.73-.25,2.86.02,3.82,1.58,6.56-.4-2.05-.34-2.66-.09-4.14,1.46-8.55,12.35-14.79,25.83-13.74,9.03.71,8.76,1.59,15.38,3.56h0Z"/>
        <path class="cls-9" d="M258.16,553.01c-13.54-.11-24.66,6.84-24.81,15.5-.15,8.67,10.71,15.79,24.25,15.9,13.54.11,24.66-6.84,24.81-15.5.15-8.66-10.71-15.79-24.25-15.9Z"/>
        <path class="cls-4" d="M279.5,599.37s-8.04,5.33-20.05,4.55c-2.73-.18-5.14-.66-7.22-1.3-7.26-2.24-10.66-6.41-10.66-6.41,0,0,7.48,4.45,17.72,5.47,9.44.94,20.21-2.31,20.21-2.31Z"/>
        <path class="cls-10" d="M279.5,599.37s-8.04,5.33-20.05,4.55c-2.73-.18-5.14-.66-7.22-1.3-7.26-2.24-10.66-6.41-10.66-6.41,0,0,7.48,4.45,17.72,5.47,9.44.94,20.21-2.31,20.21-2.31Z"/>
        <path class="cls-4" d="M274.4,579.82s-8.07,5.28-20.08,4.41c-12.26-.89-17.82-7.84-17.82-7.84,0,0,7.45,4.5,17.68,5.6,9.43,1.01,20.22-2.17,20.22-2.17h0Z"/>
        <path class="cls-10" d="M274.4,579.82s-8.07,5.28-20.08,4.41c-12.26-.89-17.82-7.84-17.82-7.84,0,0,7.45,4.5,17.68,5.6,9.43,1.01,20.22-2.17,20.22-2.17h0Z"/>
        <path class="cls-4" d="M273.82,558.81s-8.46,4.64-20.35,2.84c-3.25-.49-5.99-1.38-8.26-2.42-6.2-2.83-8.88-6.78-8.88-6.78,0,0,7.07,5.07,17.18,6.95,9.32,1.73,20.32-.6,20.32-.6h0Z"/>
        <path class="cls-10" d="M273.82,558.81s-8.46,4.64-20.35,2.84c-3.25-.49-5.99-1.38-8.26-2.42-6.2-2.83-8.88-6.78-8.88-6.78,0,0,7.07,5.07,17.18,6.95,9.32,1.73,20.32-.6,20.32-.6h0Z"/>
        <path class="cls-10" d="M275.06,543.08s-.72,2.34-.73,5.76c0,1.26.12,2.57.42,3.99.28,1.32.76,2.62,1.42,3.9.43.83.98,1.62,1.62,2.34.47.53,1,1.03,1.59,1.47,1.28.94,2.72,1.73,4.44,2.21,1.25.35,2.55.59,4.03.6,1.78.01,3.61-.22,5.75-.77-2.32-.38-4.13-1.03-5.81-1.78-1.9-.84-3.29-1.92-4.51-3.09-.46-.44-.85-.91-1.25-1.37-.27-.31-.53-.63-.79-.94-.71-.84-1.35-1.67-1.91-2.54-.79-1.23-1.49-2.38-2.03-3.55-1.62-3.46-2.23-6.22-2.23-6.22h0Z"/>
        <path class="cls-10" d="M318.64,543.88c.02-.48-4.11-5.51-10.73-9.38-1.86-1.09-3.92-2.08-6.14-2.84-.91-.31-1.85-.58-2.81-.8-1.25-.28-2.54-.48-3.86-.57-1.89-.13-3.85-.05-5.83.29-4.22.73-8.56,2.63-12.85,6.19,4.46-3.13,8.85-4.61,13.01-5.04,1.9-.2,3.75-.17,5.55.01,1.25.13,2.46.34,3.65.6.92.21,1.81.44,2.69.71,2.16.66,4.2,1.5,6.06,2.43,6.75,3.39,11.24,7.94,11.26,8.41h0Z"/>
        <path class="cls-10" d="M318.81,543.87s5.96-2.55,14.41-8.68c1.95-1.42,4.04-3.03,6.2-4.86.84-.71,1.68-1.45,2.54-2.23,1.07-.99,2.16-2.03,3.24-3.13,1.52-1.54,3.05-3.2,4.58-4.96,3.42-3.94,6.83-8.43,10.14-13.43-3.64,4.75-7.37,8.93-10.99,12.65-1.61,1.66-3.2,3.22-4.75,4.71-1.1,1.06-2.19,2.07-3.25,3.05-.84.77-1.66,1.53-2.47,2.25-2.08,1.88-4.07,3.57-5.92,5.08-8.06,6.56-13.74,9.56-13.74,9.56h0Z"/>
      </g>
      <g id="Rechter-arm">
        <path class="cls-9" d="M536.16,501.06s11.45,16.25,25.2,27.88c13.76,11.63,20.35,14.93,20.35,14.93,0,0,17.44-22.5,39.14-9.6,21.71,12.9,18.3,76-40.11,68.5-58.41-7.5-74.17-37.78-74.17-37.78l-19.37-65.96,48.95,2.03h0Z"/>
        <path class="cls-10" d="M525.32,576.54s5.88,4.69,15.64,9.98c2.2,1.19,4.58,2.39,7.16,3.56,3.08,1.4,6.4,2.76,9.93,3.96,2.21.75,4.5,1.43,6.86,2.02,1.72.43,3.47.8,5.25,1.1,4.04.7,8.21,1.13,12.46,1.27,3.54.12,7.11.02,10.71-.33,5.23-.51,10.43-1.56,15.59-3.23-5.86.97-11.66,1.1-17.39.79-5.86-.32-11.55-1.22-17.05-2.42-2.04-.45-4.04-.94-6.02-1.43-1.35-.34-2.68-.69-4-1.02-3.46-.89-6.79-1.83-9.95-2.8-4.3-1.32-8.28-2.65-11.84-3.97-10.58-3.91-17.35-7.47-17.35-7.47h0Z"/>
        <path class="cls-7" d="M647.11,522.51c.38-4.69-3.13-8.81-7.82-9.18l-17.01-1.36c-4.69-.38-8.81,3.13-9.18,7.82l-6.87,85.78c-.38,4.69,3.13,8.81,7.82,9.18l17.01,1.36c4.69.38,8.81-3.13,9.18-7.82l6.87-85.78Z"/>
        <path class="cls-9" d="M637.87,572.63c13.52.81,24.15,8.49,23.7,17.14-.44,8.65-11.78,15.02-25.3,14.21-13.52-.81-24.15-8.49-23.7-17.14.44-8.65,11.78-15.02,25.3-14.21Z"/>
        <path class="cls-9" d="M640.98,530.82c13.49-1.06,25.06,5.1,25.83,13.73.77,8.64-9.56,16.51-23.05,17.57-13.49,1.06-25.06-5.1-25.83-13.73-.77-8.64,9.56-16.51,23.05-17.57Z"/>
        <path class="cls-9" d="M604.3,531.2c13.14-1.03,24.52,6.09,25.39,15.88s-9.09,18.59-22.23,19.62c-13.14,1.03-24.52-6.09-25.39-15.88-.87-9.8,9.09-18.59,22.23-19.62Z"/>
        <path class="cls-9" d="M624.12,536.8c6.57-4.57,8.36-5.55,16.87-5.97,13.51-.68,25.06,5.1,25.83,13.73.25,2.86-.02,3.82-1.58,6.56.4-2.05.34-2.66.09-4.14-1.46-8.55-12.35-14.79-25.83-13.74-9.03.71-8.76,1.59-15.38,3.56Z"/>
        <path class="cls-10" d="M624.12,536.8c6.57-4.57,8.36-5.55,16.87-5.97,13.51-.68,25.06,5.1,25.83,13.73.25,2.86-.02,3.82-1.58,6.56.4-2.05.34-2.66.09-4.14-1.46-8.55-12.35-14.79-25.83-13.74-9.03.71-8.76,1.59-15.38,3.56Z"/>
        <path class="cls-9" d="M642.37,553.01c13.54-.11,24.66,6.84,24.81,15.5.15,8.67-10.71,15.79-24.25,15.9-13.54.11-24.66-6.84-24.81-15.5-.15-8.66,10.71-15.79,24.25-15.9Z"/>
        <path class="cls-4" d="M621.03,599.37s8.04,5.33,20.05,4.55c2.73-.18,5.14-.66,7.22-1.3,7.26-2.24,10.66-6.41,10.66-6.41,0,0-7.48,4.45-17.72,5.47-9.44.94-20.21-2.31-20.21-2.31h0Z"/>
        <path class="cls-10" d="M621.03,599.37s8.04,5.33,20.05,4.55c2.73-.18,5.14-.66,7.22-1.3,7.26-2.24,10.66-6.41,10.66-6.41,0,0-7.48,4.45-17.72,5.47-9.44.94-20.21-2.31-20.21-2.31h0Z"/>
        <path class="cls-4" d="M626.13,579.82s8.07,5.28,20.08,4.41c12.26-.89,17.82-7.84,17.82-7.84,0,0-7.45,4.5-17.68,5.6-9.43,1.01-20.22-2.17-20.22-2.17h0Z"/>
        <path class="cls-10" d="M626.13,579.82s8.07,5.28,20.08,4.41c12.26-.89,17.82-7.84,17.82-7.84,0,0-7.45,4.5-17.68,5.6-9.43,1.01-20.22-2.17-20.22-2.17h0Z"/>
        <path class="cls-4" d="M626.71,558.81s8.46,4.64,20.35,2.84c3.25-.49,5.99-1.38,8.26-2.42,6.2-2.83,8.88-6.78,8.88-6.78,0,0-7.07,5.07-17.18,6.95-9.32,1.73-20.32-.6-20.32-.6h0Z"/>
        <path class="cls-10" d="M626.71,558.81s8.46,4.64,20.35,2.84c3.25-.49,5.99-1.38,8.26-2.42,6.2-2.83,8.88-6.78,8.88-6.78,0,0-7.07,5.07-17.18,6.95-9.32,1.73-20.32-.6-20.32-.6h0Z"/>
        <path class="cls-10" d="M625.47,543.08s-.61,2.76-2.23,6.22c-.55,1.17-1.25,2.33-2.03,3.55-.56.87-1.2,1.7-1.91,2.54-.26.31-.52.63-.79.94-.4.46-.79.93-1.25,1.37-1.23,1.17-2.62,2.26-4.51,3.09-1.69.75-3.5,1.4-5.81,1.78,2.14.56,3.97.79,5.75.77,1.48-.01,2.79-.26,4.03-.6,1.72-.48,3.17-1.27,4.44-2.21.59-.44,1.12-.94,1.59-1.47.64-.73,1.19-1.51,1.62-2.34.67-1.28,1.14-2.58,1.42-3.9.3-1.41.43-2.73.42-3.99-.02-3.42-.73-5.76-.73-5.76Z"/>
        <path class="cls-10" d="M581.89,543.88c.02-.47,4.5-5.02,11.26-8.41,1.86-.93,3.89-1.78,6.06-2.43.88-.27,1.78-.5,2.69-.71,1.19-.27,2.4-.47,3.65-.6,1.79-.19,3.65-.21,5.55-.01,4.16.44,8.55,1.91,13.01,5.04-4.29-3.56-8.64-5.46-12.85-6.19-1.98-.34-3.94-.42-5.83-.29-1.32.09-2.61.29-3.86.57-.96.22-1.9.49-2.81.8-2.22.76-4.28,1.75-6.14,2.84-6.61,3.87-10.75,8.91-10.73,9.38h0Z"/>
        <path class="cls-10" d="M581.71,543.87s-5.67-3-13.74-9.56c-1.85-1.51-3.84-3.2-5.92-5.08-.81-.73-1.63-1.48-2.47-2.25-1.06-.98-2.14-1.99-3.25-3.05-1.55-1.48-3.14-3.05-4.75-4.71-3.62-3.73-7.35-7.9-10.99-12.65,3.32,5.01,6.72,9.49,10.14,13.43,1.53,1.76,3.06,3.42,4.58,4.96,1.09,1.1,2.17,2.14,3.24,3.13.85.78,1.7,1.52,2.54,2.23,2.16,1.83,4.25,3.44,6.2,4.86,8.46,6.14,14.41,8.68,14.41,8.68h0Z"/>
      </g>
    </g>
    <g id="Hoofd">
      <path class="cls-7" d="M367.79,243.53s-3.84,21.62,7.29,37.93c11.13,16.31,21.88,27.31,21.88,27.31l-43,40.21s-22.59-21.7-11.9-65.63c7.29-29.97,25.72-39.83,25.72-39.83h0Z"/>
      <path class="cls-7" d="M529.61,243.53s3.84,21.62-7.29,37.93c-11.13,16.31-21.88,27.31-21.88,27.31l43,40.21s22.59-21.7,11.9-65.63c-7.29-29.97-25.72-39.83-25.72-39.83h0Z"/>
      <path class="cls-9" d="M448.03,522.93c44.55.36,133.26-16.16,134.37-82.89.52-31.12-27.26-43.63-27.26-43.63,0,0,18.43-105.08-104.81-106.6-123.23-1.52-109.8,105.84-109.8,105.84,0,0-26.26,22.02-25.34,45.9,2.3,59.56,85.61,80.99,132.83,81.37h0Z"/>
      <path class="cls-8" d="M349.12,321.38s-1.13-4.22-.43-12.64c.14-1.63.33-3.4.6-5.35.17-1.26.39-2.57.61-3.96.3-1.85.67-3.81,1.07-5.9.2-1.06.4-2.15.6-3.28.19-1.07.37-2.17.58-3.3.22-1.21.46-2.44.7-3.72.53-2.74,1.13-5.62,1.85-8.69.91-3.89,1.93-7.99,3.27-12.4-1.91,3.45-3.6,6.68-5.07,9.85-1.1,2.36-2.05,4.62-2.9,6.83-1.11,2.89-2.02,5.63-2.74,8.26-.34,1.24-.63,2.46-.86,3.64-.33,1.71-.57,3.36-.73,4.94-.28,2.72-.36,5.22-.31,7.51.06,2.85.31,5.32.65,7.49,1.14,7.35,3.12,10.72,3.12,10.72h0Z"/>
      <path class="cls-8" d="M550,323.71s1.98-3.37,3.12-10.72c.34-2.17.59-4.64.65-7.49.05-2.29-.03-4.78-.31-7.51-.16-1.58-.4-3.23-.73-4.94-.23-1.19-.52-2.4-.86-3.64-.72-2.62-1.63-5.36-2.74-8.26-.85-2.21-1.8-4.47-2.9-6.83-1.47-3.17-3.16-6.4-5.07-9.85,1.34,4.42,2.36,8.51,3.27,12.4.72,3.07,1.32,5.95,1.85,8.69.25,1.28.48,2.51.7,3.72.21,1.13.38,2.23.58,3.3.2,1.13.4,2.22.6,3.28.4,2.1.77,4.06,1.07,5.9.22,1.39.44,2.7.61,3.96.27,1.95.47,3.71.6,5.35.7,8.42-.43,12.64-.43,12.64h0Z"/>
      <path class="cls-10" d="M492.32,303.1s4.78,2.13,11.31,6.02c2.22,1.32,4.59,2.84,7.11,4.51,1.86,1.23,3.77,2.55,5.7,3.95.74.53,1.49,1.06,2.24,1.6,1.11.79,2.23,1.6,3.34,2.44,3.03,2.3,5.94,4.81,8.55,7.71,2.61,2.89,4.92,6.01,6.7,9.63-.88-3.63-2.23-6.97-4-10.12-1.21-2.17-2.61-4.18-4.15-6.09-1.82-2.27-3.82-4.35-5.95-6.24-.93-.82-1.89-1.59-2.87-2.31-1.34-.98-2.72-1.87-4.1-2.68-2.2-1.28-4.4-2.36-6.54-3.29-1.77-.77-3.47-1.42-5.09-1.97-7.12-2.43-12.25-3.16-12.25-3.16h0Z"/>
      <g id="Mond">
        <path class="cls-7" d="M501.21,440.04s-2.21-15.54,18.18-15.05c20.39.49,37.17,14.33,36.12,50.01-1.14,38.71-72.85,47.4-102.82,48.07-30.47.68-110.94-11.1-111.68-51.5-.64-35.22,15.98-46.53,36.86-45.89,18.64.57,15.97,15.78,15.97,15.78,0,0,17.49,24.22,54.3,25.49,39.26,1.36,53.07-26.91,53.07-26.91h0Z"/>
        <path class="cls-11" d="M447.79,495.23c10.62.14,16.99-4.9,21.57-8.3,9.79-7.3,17.21-17.09,24.76-26.49,2.84-3.54,4.86-7.93,8.57-10.57,2.03-1.45,7.4-.1,8.52.21,1.83.5,3.45,1.57,5.23,2.23.17.06.54.08.53-.1-.06-2.57-2.49-4.56-4.19-6.51-1.72-1.96-3.62-3.78-5.62-5.46-4.21-3.55-8.23-2.92-12.01.77-6.24,6.07-12.01,14.58-20.9,17.25-13.6,4.09-22.93-3.31-26.56-6.84,0,0-11.33,12.28-26.46,6.84-8.73-3.14-14.66-11.19-20.9-17.25-3.79-3.68-7.8-4.32-12.02-.77-2,1.68-3.9,3.5-5.62,5.46-1.7,1.94-4.13,3.94-4.19,6.51,0,.18.36.16.53.1,1.78-.66,3.4-1.73,5.23-2.23,1.12-.31,6.5-1.65,8.52-.21,3.71,2.64,5.73,7.04,8.57,10.57,7.56,9.41,14.99,19.22,24.83,26.48,4.65,3.43,11.6,8.18,21.6,8.31h0Z"/>
        <path class="cls-3" d="M448.38,473.39c5.44.06,16.39,1.27,16.39,7.99s-9.84,11.1-16.64,11.2-15.97-4.18-16.03-11.56c-.05-7.38,10.84-7.7,16.28-7.64h0Z"/>
      </g>
      <g id="Linker-oog">
        <path class="cls-11" d="M412.24,385.88s2.04-38.69-23.27-38.69-25.47,40.87-25.47,40.87l48.75-2.18Z"/>
        <path class="cls-12" d="M410.29,372.81s-5.54-16.91-21.64-16.91-25.16,22.77-25.16,33.61,6.14,20.68,6.14,20.68c0,0,7.21-.27,24.25,7.01,8.49,3.63,16.4-44.4,16.4-44.4h0Z"/>
        <path class="cls-11" d="M377.32,391.31c.04-8.7,5.96-25.55,23.19-25.7,13.61-.12,11.51,19.77,11.59,23.11.16,6.76-2.01,29.03-15.22,28.96-13.2-.08-19.6-17.29-19.56-26.37h0Z"/>
        <ellipse class="cls-13" cx="383.28" cy="388.21" rx="3.46" ry="4.93"/>
        <ellipse class="cls-13" cx="403.45" cy="400.66" rx="5.27" ry="5.69"/>
        <path class="cls-2" d="M399.47,373.37c1.09.64,1.26,2.33.39,3.76-.87,1.43-2.46,2.07-3.54,1.42-1.09-.64-1.26-2.33-.39-3.76.87-1.43,2.46-2.07,3.54-1.42Z"/>
      </g>
      <g id="Rechter-oog">
        <path class="cls-11" d="M484.61,385.88s-2.04-38.69,23.27-38.69,25.47,40.87,25.47,40.87l-48.75-2.18Z"/>
        <path class="cls-12" d="M486.52,373.01s5.54-16.91,21.64-16.91,25.16,22.77,25.16,33.61-6.14,20.68-6.14,20.68c0,0-7.21-.27-24.25,7.01-8.49,3.63-16.4-44.4-16.4-44.4Z"/>
        <path class="cls-11" d="M519.69,391.31c-.04-8.7-5.96-25.55-23.19-25.7-13.61-.12-11.51,19.77-11.59,23.11-.16,6.76,2.01,29.03,15.22,28.96,13.2-.08,19.6-17.29,19.56-26.37h0Z"/>
        <ellipse class="cls-13" cx="513.74" cy="388.21" rx="3.46" ry="4.93"/>
        <ellipse class="cls-13" cx="493.57" cy="400.66" rx="5.27" ry="5.69"/>
        <path class="cls-2" d="M497.55,373.37c-1.09.64-1.26,2.33-.39,3.76.87,1.43,2.46,2.07,3.54,1.42,1.09-.64,1.26-2.33.39-3.76-.87-1.43-2.46-2.07-3.54-1.42Z"/>
      </g>
      <g id="Neus">
        <path class="cls-11" d="M414.33,412.82s8.45-14.8,33.25-14.8,33.21,14.1,33.21,14.1l-32.01-7.73-34.46,8.43h0Z"/>
        <path class="cls-11" d="M437.11,434.34s-3.7-17.79-13.12-17.87c-9.42-.08-9.01,6.91-9.02,7.16,0,.31-.71,6.4,22.13,10.71Z"/>
        <path class="cls-11" d="M459.41,434.34s3.7-17.79,13.12-17.87c9.42-.08,9.01,6.91,9.02,7.16,0,.31.71,6.4-22.13,10.71Z"/>
        <path class="cls-6" d="M414.17,413.26s11.11-11.3,34.3-10.82c23.19.48,32.69,10.02,32.69,10.02,0,0-4.99-1.9-18.12-1.99-12-.08-14.41,3.34-14.41,3.34,0,0-2.88-3.44-14.33-3.5-8.45-.05-20.13,2.94-20.13,2.94h0Z"/>
      </g>
      <path class="cls-10" d="M576.52,467s-2.75,6.75-10.36,15.1c-1.76,1.93-3.78,3.95-6.08,6-.88.79-1.81,1.59-2.77,2.39-1.21,1.01-2.47,2.03-3.81,3.05-1.86,1.42-3.84,2.84-5.98,4.24-4.67,3.06-10.02,6.03-16.23,8.65,6.4-2.23,11.99-4.83,16.84-7.67,2.24-1.31,4.31-2.67,6.24-4.06,1.39-1,2.69-2.02,3.92-3.05.98-.82,1.9-1.65,2.78-2.48,2.28-2.15,4.24-4.3,5.93-6.34,7.25-8.79,9.52-15.83,9.52-15.83h0Z"/>
    </g>
  </g>
</svg>