<?xml version="1.0" encoding="UTF-8"?>
<svg id="Layer_1" xmlns="http://www.w3.org/2000/svg" viewBox="0 0 900 150">
  <defs>
    <style>
      .cls-1 {
        fill: #228e21;
      }
    </style>
  </defs>
  <path class="cls-1" d="M21.76,81.19v-7.88c0-1.38.25-1.5,2.25-1.5l18.75-.25c1.62,0,1.75.12,1.75,1.75-.12,3-1,7.25-1,11,0,4.75,1.38,8.75,7.12,8.75,8.75,0,11.75-5,11.75-14.5,0-1-1.12-41.12-1.25-47.5,0-2.12.62-3.25,1.88-3.25,3.38-.12,5.88-.12,7.88-.12,4.88,0,6.12-.25,6.12,1.5,0,2.12.5,17.25.5,21.62,0,4.62-.25,8.88-.62,31.5,0,32.5-8.75,30.75-29.12,31-21.75.25-26-6.75-26-32.12Z"/>
  <path class="cls-1" d="M85.75,62.31v-3.25l-2.38-.12c-1.38-.12-1.5-.12-1.5-3l.38-18.12c0-1.88.25-2,1.75-2h17.38c1.75,0,2.25.25,2.38,3.25,0-.88.38,41.38.38,42,0,9.75,7.88,11.75,10.75,11.75,8.5,0,12.62-4.38,12.62-13.25l-.12-42.25c0-4.5.5-6.5,2.5-6.5h7.62c1.62,0,1.62.88,1.62,3.5.38,53.5.5,69.62.5,75.25v3.12c0,3-.5,3.25-2.25,3.25h-1.5c-5.25,0-8.38-.12-8.38-2.88v-2.88c-4,4-7.75,6.38-15.12,6.38-24.38,0-26.62-18.5-26.62-54.25Z"/>
  <path class="cls-1" d="M189.13,122.06c.25-6.88.5-21.12.5-28.12,0-9.38-.38-18.75-1-28.12l-5.88,25.12-5.5,22.62c-.38,1.38,0,1.25-1.25,1-2.38-.62-4.88-1-7.62-1.25-1-.12-.75.12-1.12-1.38l-2.75-11.25-6.12-26.25v42.5c0,.62,0,.88-.25.88s-.5-.12-.88-.12l-9.88-.5c-.75-.12-1-.12-1-1.75,0-2.5.62-9.12.62-26.25,0-9.12-.62-20.88-.62-36.62v-.88q0-1,.88-1h.75c3,0,5.5.5,7.5.5,4.25,0,6.12-.5,7.25-.5,1.5,0,1.75.62,2.62,3.75l9.75,37c.25,1.5.38.75.62-.5l7.5-31.12,3.12-11.25c.25-1,1.88-1.25,4.88-1.25,2,0,4.38.12,8.25.12,2,0,3.88-.12,6.25-.12h.62c.75,0,.75.12.75.75,0,.5-.62,22-.62,39,0,27.12.62,32.62.62,35.5,0,1.12-.12,1-1.38,1h-15.62c-1,0-1,.25-1-1.5ZM213.38,114.94c-1.12,0-1.25-.12-1.25-1.25l.62-66.62c0-4.38-.5-4.38-4.5-4.5l-42.25-.75c-2.38-.25-2.62,0-2.62-1l.25-14.38c0-2-.12-2.12,1.25-2.12h62.5c30.38,0,38.88,3.38,38.88,29.5,0,24.12-3.12,34.88-37.62,34.88-1.62,0-2.5-.12-3.12-.12-1,0-1,.25-1,1.62v23.75c0,1.25,0,1.5-1.12,1.5l-10-.5ZM253.25,55.94c0-7.88-9.38-10.12-14.62-10.12-1.88-.12-3.62-.12-5.12-.12-6.38,0-9,.88-9,3.88l-.12,19.62c0,2.25.62,2.38,13,2.38,15.5,0,15.88-3.88,15.88-15.62Z"/>
  <path class="cls-1" d="M271.75,116.44l.62-11c0-1,.12-1.25,2.12-1.25l24.5-.25.38-70.75c0-1-.12-1.88,2-1.88,5.75,0,6.75-.5,22.88-.5,6.5,0,19.25,49.62,22.5,49.62.5,0,1-9.75.88-22.5l-.25-32.5c0-1.38-.12-1.38.75-1.38h11.12c.75,0,.88,0,.88.75v.62l-1.38,83.62c0,1.12-6.25,3.38-12,3.38-2.62,0-5.12-.75-6.75-3-15-31.62-19.62-46.25-25.25-54-.5,6.38-.62,30.62-.62,48.5h7c1,0,1.12.12,1,1.38l-.62,11c0,1-.12,1.25-2.12,1.25l-46.62.25c-1,0-1.12-.12-1-1.38ZM272.25,96.31v-.5c0-7.88.5-25.75.5-33.75,0-9.38-.25-3.25-.38-12.38,0-2,0-2.88,2.12-2.88h14.88c2.38,0,2.38,1,2.62,3.25v47c0,1.5-.25,1.25-2.5,1.38l-15.62.5c-1.5,0-1.62-.38-1.62-2.62ZM275.13,42.19c-2,0-2.5-.5-2.5-2.5-.12-6.5-.12-8.25-.12-10.62,0-1.38.5-2.25,2.5-2.25l14.5.38c1.38,0,2.5.12,2.5,1.75v11c0,1.38-.25,2.5-1.5,2.5l-15.38-.25Z"/>
  <path class="cls-1" d="M413.63,106.56l-1.12-6.25c-9.75,11.75-14.75,12-18.38,12h-.5c-19.62,0-27.75-8.38-27.75-38.88s6.38-42.5,22-46c2.12-.5,5.12-.75,7.75-.75,1.25,0,2.38,0,3.25.12,14.5,1.75,20.75,9,20.75,27v10.25c0,1.88,0,1.62-1.62,1.62h-8.75c-3.5,0-2.5-.62-3.38-5.38-1.25-8-4.5-10.5-12.62-10.62h-.25c-8.62,0-13.38,8.75-13.5,21.75v1c0,22.88,5.25,25,13,25,8.62,0,10-3.75,10-6.38,0-4.88-.25-5-8.5-5h-6.25c-1.5,0-1.5.12-1.5-1.5v-9.12c0-1.75-.12-1.62,1.62-1.75l33.38-1.25c1.88,0,1.75,1.38,1.75,3v37.62c0,3.75-.25,4-3.12,4h-3.5c-2.38,0-1.12-.38-2.75-10.5Z"/>
  <path class="cls-1" d="M455.62,81.19v-7.88c0-1.38.25-1.5,2.25-1.5l18.75-.25c1.62,0,1.75.12,1.75,1.75-.12,3-1,7.25-1,11,0,4.75,1.38,8.75,7.12,8.75,8.75,0,11.75-5,11.75-14.5,0-1-1.12-41.12-1.25-47.5,0-2.12.62-3.25,1.88-3.25,3.38-.12,5.88-.12,7.88-.12,4.88,0,6.12-.25,6.12,1.5,0,2.12.5,17.25.5,21.62,0,4.62-.25,8.88-.62,31.5,0,32.5-8.75,30.75-29.12,31-21.75.25-26-6.75-26-32.12Z"/>
  <path class="cls-1" d="M562.75,102.06c-1.5,6-11.75,13.75-21.38,13.75h-1.25c-14.88,0-24.25-.5-24.25-30.25,0-19.88,9.62-21,26.75-21h6.12c2.62,0,5.38-.12,5.38-2.75,0-4.5,0-12.5-11.5-12.5-3.5,0-16.12.25-21.38.38-1.25,0-2.25.12-2.88.12-2.12,0-1.88-.62-2-5l-.38-13.25c0-.88-.12-1.62-.12-2.12,0-1.38.38-1.75,1.75-1.75.38,0,1,.12,1.62.12l23.12,1.75c19.12,1.5,28.12,15.75,28.12,43.75,0,20.62,6.38,28.25,37.75,28.25,4.75,0,9.12-.38,12.5-.75,2.38-.25,3.38-.88,3.88-.88.25,0,.38.25.38.88v12.75c0,2.12-.25,1.88-3.25,2.5-6.12,1.25-13.5,2-20.88,2-17.12,0-34.62-4.12-38.12-16ZM556.25,77.19c0-2.5-1.62-2.25-2.25-2.25h-2.62c-18.38,0-19.75,2.5-19.75,8.38v3.5c0,8.62,4.88,9.12,10.25,9.12,12.62,0,14.38-18.75,14.38-18.75ZM575.75,61.81c0-25.5,5.75-38.75,26.75-38.75,2.38,0,12.62.12,14.62.38,4.25.75,4.62,1,4.62,2.62v26.25c0,2.62,0,3.12-1.38,3.12-.62,0-1.75-.12-3.25-.12-2.25,0-12.75-2.25-16-2.25-11.88,0-13.5,2-13.5,8.25,0,10.5,2.25,12.5,15.75,12.5,2.75,0,15.5-2.62,17.5-2.62,1,0,1.62-.12,2.12-.12.75,0,.88.38.88,2.5v16.5c0,1.88-.25,2.38-2.75,2.88-2.38.38-15.5.62-18.38.62-19.88,0-27-7.88-27-31.75Z"/>
  <path class="cls-1" d="M662.5,114.06c-1.62.5-2.75.62-5.25.75-25.75,0-28.38-14.62-28.38-46.88s9.62-40.12,30.5-40.12,29.62,6.5,29.62,40c0,24-2.75,37-16.88,43,3.25,4,9.12,3.75,9.12,5.12,0,7.38-1.75,12-4.25,12h-.25c-8.5-2.25-13.25-3.62-14.25-13.88ZM660.12,94.31c-.88-3.5-1.75-6-1.75-6-.5-1.62.5-2.25.5-2.25.88-.62,2.25-1.88,3.25-2.75,1.5-1.12,1.38-.62,2,.5,0,0,2.5,4.88,4.25,10,5-1.5,5.12-6.62,5.12-24.62,0-11.88-.75-19.38-15.88-19.38-12.12,0-15.75,7.5-15.75,19.38,0,23.88,2.12,25.12,12.12,25.12h6.12Z"/>
  <path class="cls-1" d="M694.25,73.19V31.94c0-1.5,0-1.62,1.25-1.62h1l18.75-.38h1.12c.75,0,.62.25.75,2.62l-1.25,56.12c-.12,7.38,1.75,15.88,7.38,15.88,12.62,0,12.75-14.62,12.75-35.38v-1.25c0-1.88-.25-16.75-.25-19.38s.25-2.75,1.25-2.75h.75c4.62,0,10.62.38,14.12.38,1.62,0,2,.25,2,2.12l.38,17v.88c0,2-.38,2.12-1.75,2.12l-3.5.12-.25,6.38c-1.75,44.12-7.38,47.25-26.12,47.25-23.62,0-28.38-8.62-28.38-48.88ZM761.62,111.06c-2.38,0-2.25.12-2.25-1.62v-3.5c0-16-.38-39.88-.38-58.12v-3.38c0-3.75-.25-4-3.62-4l-25.5-.25c-2.5,0-2.62,0-2.62-1v-1.25l.25-11.25c0-2.12.38-2.25,1.75-2.25l77.38-1.25h.5c.88,0,.88.12.88,1.5v19.62c0,.88,0,1.12-7.62,1.12-6.12,0-14.62-.25-29.12-.38-.88,0-1.25,3.12-1.25,6.12,0,2.75.38,5.38,1,5.38l32-.12c2.25,0,1.88-.12,1.75,1.5l-.88,15.75c-.12,2.25.25,2-2.88,2.12l-29.88,1c-.5,0-.88,2.62-.88,5,0,2,.25,3.75,1,3.75,2.75.38,5.88.5,9.12.5,6.62,0,14-.5,22.25-.62,1.75,0,1.62-.12,1.75,1.38l1.38,22.62c.12,1.88.12,2-.62,2h-.62l-42.88-.38Z"/>
  <path class="cls-1" d="M814.37,116.94v-30.62c0-1.38.12-1.5,1.75-1.5h7.62c7.5,0,9.62.5,9.62,5.75,0,6.75,4.12,7.38,11.62,7.38,4.75,0,8.5-3.25,8.5-8.38,0-7.62-3.5-9.5-13-9.5-7.75,0-27.12-1-27.12-25,0-18.5,8.75-27.25,24.38-27.25,20.12,0,24.25,11.88,24.38,11.88,0-.12-.62-2.12-.62-7.62,0-.25.12-2.5.12-2.88,0-1.12.5-1.75,2-1.75h9.75c1.5,0,1.75.12,1.75,1.5v29.88c0,2.25-.12,2.62-1,2.62.38,0-10.5-.5-12-.62-9.38-.5-9-.88-9.25-4.88-.38-5.12-3.88-6.12-13.12-6.12-7.5,0-11.25,3.88-11.25,8.12,0,5.5,5.75,11.62,14.75,11.62,26.75,0,33.25,4.25,33.25,21.75,0,11.25-7.88,24.25-31,24.25-12.75,0-17.12-7.5-18.38-7.5-.5,0-.62.62-.62,6.5,0,3.88-1.88,4-6.75,4h-4.12c-1.12,0-1.25-.12-1.25-1.62Z"/>
</svg>