<?xml version="1.0" encoding="UTF-8"?>
<svg id="Layer_1" xmlns="http://www.w3.org/2000/svg" viewBox="0 0 994.49 515.73">
  <defs>
    <style>
      .cls-1 {
        fill: #eee;
      }
    </style>
  </defs>
  <path class="cls-1" d="M5.95,139.07v-18.39c0-3.21.58-3.5,5.25-3.5l43.78-.58c3.79,0,4.09.29,4.09,4.09-.29,7-2.33,16.93-2.33,25.68,0,11.09,3.21,20.43,16.63,20.43,20.43,0,27.43-11.67,27.43-33.85,0-2.33-2.63-96.01-2.92-110.9,0-4.96,1.46-7.59,4.38-7.59,7.88-.29,13.72-.29,18.39-.29,11.38,0,14.3-.58,14.3,3.5,0,4.96,1.17,40.27,1.17,50.49,0,10.8-.58,20.72-1.46,73.54,0,75.88-20.43,71.79-68,72.38-50.78.58-60.7-15.76-60.7-75Z"/>
  <path class="cls-1" d="M155.36,95v-7.59l-5.54-.29c-3.21-.29-3.5-.29-3.5-7l.88-42.32c0-4.38.58-4.67,4.09-4.67h40.57c4.09,0,5.25.58,5.54,7.59,0-2.04.88,96.6.88,98.06,0,22.76,18.39,27.43,25.1,27.43,19.85,0,29.48-10.21,29.48-30.93l-.29-98.64c0-10.51,1.17-15.18,5.84-15.18h17.8c3.79,0,3.79,2.04,3.79,8.17.88,124.91,1.17,162.55,1.17,175.69v7.3c0,7-1.17,7.59-5.25,7.59h-3.5c-12.26,0-19.55-.29-19.55-6.71v-6.71c-9.34,9.34-18.09,14.88-35.31,14.88-56.91,0-62.16-43.19-62.16-126.66Z"/>
  <path class="cls-1" d="M396.71,234.5c.58-16.05,1.17-49.32,1.17-65.66,0-21.89-.88-43.78-2.33-65.66l-13.72,58.66-12.84,52.82c-.88,3.21,0,2.92-2.92,2.33-5.54-1.46-11.38-2.33-17.8-2.92-2.33-.29-1.75.29-2.63-3.21l-6.42-26.27-14.3-61.29v99.23c0,1.46,0,2.04-.58,2.04s-1.17-.29-2.04-.29l-23.06-1.17c-1.75-.29-2.33-.29-2.33-4.09,0-5.84,1.46-21.3,1.46-61.29,0-21.3-1.46-48.74-1.46-85.51v-2.04q0-2.33,2.04-2.33h1.75c7,0,12.84,1.17,17.51,1.17,9.92,0,14.3-1.17,16.93-1.17,3.5,0,4.09,1.46,6.13,8.75l22.76,86.38c.58,3.5.88,1.75,1.46-1.17l17.51-72.67,7.3-26.27c.58-2.33,4.38-2.92,11.38-2.92,4.67,0,10.21.29,19.26.29,4.67,0,9.05-.29,14.59-.29h1.46c1.75,0,1.75.29,1.75,1.75,0,1.17-1.46,51.36-1.46,91.05,0,63.33,1.46,76.17,1.46,82.88,0,2.63-.29,2.33-3.21,2.33h-36.48c-2.33,0-2.33.58-2.33-3.5ZM453.33,217.86c-2.63,0-2.92-.29-2.92-2.92l1.46-155.55c0-10.21-1.17-10.21-10.51-10.51l-98.64-1.75c-5.54-.58-6.13,0-6.13-2.33l.58-33.56c0-4.67-.29-4.96,2.92-4.96h145.92c70.92,0,90.76,7.88,90.76,68.87,0,56.33-7.3,81.42-87.84,81.42-3.79,0-5.84-.29-7.3-.29-2.33,0-2.33.58-2.33,3.79v55.45c0,2.92,0,3.5-2.63,3.5l-23.35-1.17ZM546.42,80.12c0-18.39-21.89-23.64-34.15-23.64-4.38-.29-8.46-.29-11.97-.29-14.88,0-21.01,2.04-21.01,9.05l-.29,45.82c0,5.25,1.46,5.54,30.35,5.54,36.19,0,37.06-9.05,37.06-36.48Z"/>
  <path class="cls-1" d="M589.61,221.37l1.46-25.68c0-2.33.29-2.92,4.96-2.92l57.2-.58.88-165.18c0-2.33-.29-4.38,4.67-4.38,13.42,0,15.76-1.17,53.41-1.17,15.18,0,44.94,115.86,52.53,115.86,1.17,0,2.33-22.76,2.04-52.53l-.58-75.88c0-3.21-.29-3.21,1.75-3.21h25.97c1.75,0,2.04,0,2.04,1.75v1.46l-3.21,195.24c0,2.63-14.59,7.88-28.02,7.88-6.13,0-11.97-1.75-15.76-7-35.02-73.84-45.82-107.98-58.95-126.08-1.17,14.88-1.46,71.5-1.46,113.23h16.34c2.33,0,2.63.29,2.33,3.21l-1.46,25.68c0,2.33-.29,2.92-4.96,2.92l-108.86.58c-2.33,0-2.63-.29-2.33-3.21ZM590.77,174.38v-1.17c0-18.39,1.17-60.12,1.17-78.8,0-21.89-.58-7.59-.88-28.89,0-4.67,0-6.71,4.96-6.71h34.73c5.55,0,5.55,2.33,6.13,7.59v109.73c0,3.5-.58,2.92-5.84,3.21l-36.48,1.17c-3.5,0-3.79-.88-3.79-6.13ZM597.49,48.01c-4.67,0-5.84-1.17-5.84-5.84-.29-15.18-.29-19.26-.29-24.81,0-3.21,1.17-5.25,5.84-5.25l33.85.88c3.21,0,5.84.29,5.84,4.09v25.68c0,3.21-.58,5.84-3.5,5.84l-35.9-.58Z"/>
  <path class="cls-1" d="M920.83,198.31l-2.63-14.59c-22.76,27.43-34.44,28.02-42.9,28.02h-1.17c-45.82,0-64.79-19.55-64.79-90.76s14.88-99.23,51.36-107.4c4.96-1.17,11.97-1.75,18.09-1.75,2.92,0,5.55,0,7.59.29,33.85,4.09,48.45,21.01,48.45,63.04v23.93c0,4.38,0,3.79-3.79,3.79h-20.43c-8.17,0-5.84-1.46-7.88-12.55-2.92-18.68-10.51-24.51-29.48-24.81h-.58c-20.14,0-31.23,20.43-31.52,50.78v2.33c0,53.41,12.26,58.37,30.35,58.37,20.14,0,23.35-8.76,23.35-14.88,0-11.38-.58-11.67-19.85-11.67h-14.59c-3.5,0-3.5.29-3.5-3.5v-21.3c0-4.09-.29-3.79,3.79-4.09l77.92-2.92c4.38,0,4.09,3.21,4.09,7v87.84c0,8.75-.58,9.34-7.3,9.34h-8.17c-5.54,0-2.63-.88-6.42-24.51Z"/>
  <path class="cls-1" d="M5.95,400.88v-18.39c0-3.21.58-3.5,5.25-3.5l43.78-.58c3.79,0,4.09.29,4.09,4.09-.29,7-2.33,16.93-2.33,25.68,0,11.09,3.21,20.43,16.63,20.43,20.43,0,27.43-11.67,27.43-33.85,0-2.33-2.63-96.01-2.92-110.9,0-4.96,1.46-7.59,4.38-7.59,7.88-.29,13.72-.29,18.39-.29,11.38,0,14.3-.58,14.3,3.5,0,4.96,1.17,40.27,1.17,50.49,0,10.8-.58,20.72-1.46,73.54,0,75.88-20.43,71.79-68,72.38-50.78.58-60.7-15.76-60.7-75Z"/>
  <path class="cls-1" d="M256.05,449.62c-3.5,14.01-27.43,32.1-49.9,32.1h-2.92c-34.73,0-56.62-1.17-56.62-70.63,0-46.4,22.47-49.03,62.45-49.03h14.3c6.13,0,12.55-.29,12.55-6.42,0-10.51,0-29.18-26.85-29.18-8.17,0-37.65.58-49.9.88-2.92,0-5.25.29-6.71.29-4.96,0-4.38-1.46-4.67-11.67l-.88-30.93c0-2.04-.29-3.79-.29-4.96,0-3.21.88-4.09,4.09-4.09.88,0,2.33.29,3.79.29l53.99,4.08c44.65,3.5,65.66,36.77,65.66,102.14,0,48.15,14.88,65.96,88.14,65.96,11.09,0,21.3-.88,29.18-1.75,5.54-.58,7.88-2.04,9.05-2.04.58,0,.88.58.88,2.04v29.77c0,4.96-.58,4.38-7.59,5.84-14.3,2.92-31.52,4.67-48.74,4.67-39.98,0-80.84-9.63-89.01-37.36ZM240.87,391.55c0-5.84-3.79-5.25-5.25-5.25h-6.13c-42.9,0-46.11,5.84-46.11,19.55v8.17c0,20.14,11.38,21.3,23.93,21.3,29.48,0,33.56-43.78,33.56-43.78ZM286.4,355.65c0-59.54,13.42-90.47,62.45-90.47,5.55,0,29.48.29,34.15.88,9.92,1.75,10.8,2.33,10.8,6.13v61.29c0,6.13,0,7.3-3.21,7.3-1.46,0-4.09-.29-7.59-.29-5.25,0-29.77-5.25-37.36-5.25-27.72,0-31.52,4.67-31.52,19.26,0,24.51,5.25,29.18,36.77,29.18,6.42,0,36.19-6.13,40.86-6.13,2.33,0,3.79-.29,4.96-.29,1.75,0,2.04.88,2.04,5.84v38.52c0,4.38-.58,5.54-6.42,6.71-5.54.88-36.19,1.46-42.9,1.46-46.4,0-63.04-18.39-63.04-74.13Z"/>
  <path class="cls-1" d="M488.93,477.64c-3.79,1.17-6.42,1.46-12.26,1.75-60.12,0-66.25-34.15-66.25-109.44s22.47-93.68,71.21-93.68,69.17,15.17,69.17,93.39c0,56.03-6.42,86.38-39.4,100.39,7.59,9.34,21.3,8.75,21.3,11.96,0,17.22-4.09,28.02-9.92,28.02h-.58c-19.85-5.25-30.94-8.46-33.27-32.39ZM483.38,431.53c-2.04-8.17-4.09-14.01-4.09-14.01-1.17-3.79,1.17-5.25,1.17-5.25,2.04-1.46,5.25-4.38,7.59-6.42,3.5-2.63,3.21-1.46,4.67,1.17,0,0,5.84,11.38,9.92,23.35,11.67-3.5,11.97-15.47,11.97-57.49,0-27.72-1.75-45.24-37.06-45.24-28.31,0-36.77,17.51-36.77,45.24,0,55.74,4.96,58.66,28.31,58.66h14.3Z"/>
  <path class="cls-1" d="M563.05,382.21v-96.31c0-3.5,0-3.79,2.92-3.79h2.33l43.78-.88h2.63c1.75,0,1.46.58,1.75,6.13l-2.92,131.04c-.29,17.22,4.09,37.06,17.22,37.06,29.48,0,29.77-34.15,29.77-82.59v-2.92c0-4.38-.58-39.11-.58-45.23s.58-6.42,2.92-6.42h1.75c10.8,0,24.81.88,32.98.88,3.79,0,4.67.58,4.67,4.96l.88,39.69v2.04c0,4.67-.88,4.96-4.09,4.96l-8.17.29-.58,14.88c-4.09,103.02-17.22,110.32-60.99,110.32-55.16,0-66.25-20.14-66.25-114.11ZM720.35,470.63c-5.54,0-5.25.29-5.25-3.79v-8.17c0-37.36-.88-93.1-.88-135.71v-7.88c0-8.76-.58-9.34-8.46-9.34l-59.54-.58c-5.84,0-6.13,0-6.13-2.33v-2.92l.58-26.27c0-4.96.88-5.25,4.09-5.25l180.65-2.92h1.17c2.04,0,2.04.29,2.04,3.5v45.82c0,2.04,0,2.63-17.8,2.63-14.3,0-34.15-.58-68-.88-2.04,0-2.92,7.3-2.92,14.3,0,6.42.88,12.55,2.33,12.55l74.71-.29c5.25,0,4.38-.29,4.09,3.5l-2.04,36.77c-.29,5.25.58,4.67-6.71,4.96l-69.75,2.33c-1.17,0-2.04,6.13-2.04,11.67,0,4.67.58,8.75,2.33,8.75,6.42.88,13.72,1.17,21.3,1.17,15.47,0,32.69-1.17,51.95-1.46,4.09,0,3.79-.29,4.09,3.21l3.21,52.82c.29,4.38.29,4.67-1.46,4.67h-1.46l-100.1-.88Z"/>
  <path class="cls-1" d="M843.5,484.35v-71.5c0-3.21.29-3.5,4.09-3.5h17.8c17.51,0,22.47,1.17,22.47,13.42,0,15.76,9.63,17.22,27.14,17.22,11.09,0,19.85-7.59,19.85-19.55,0-17.8-8.17-22.18-30.35-22.18-18.09,0-63.33-2.33-63.33-58.37,0-43.19,20.43-63.62,56.91-63.62,46.99,0,56.62,27.72,56.91,27.72,0-.29-1.46-4.96-1.46-17.8,0-.58.29-5.84.29-6.71,0-2.63,1.17-4.09,4.67-4.09h22.76c3.5,0,4.09.29,4.09,3.5v69.75c0,5.25-.29,6.13-2.33,6.13.88,0-24.51-1.17-28.02-1.46-21.89-1.17-21.01-2.04-21.6-11.38-.88-11.96-9.05-14.3-30.64-14.3-17.51,0-26.27,9.05-26.27,18.97,0,12.84,13.42,27.14,34.44,27.14,62.45,0,77.63,9.92,77.63,50.78,0,26.27-18.39,56.62-72.38,56.62-29.77,0-39.98-17.51-42.9-17.51-1.17,0-1.46,1.46-1.46,15.18,0,9.05-4.38,9.34-15.76,9.34h-9.63c-2.63,0-2.92-.29-2.92-3.79Z"/>
</svg>